<svg width="44" height="43" viewBox="0 0 44 43" fill="none" xmlns="http://www.w3.org/2000/svg">
<path fill-rule="evenodd" clip-rule="evenodd" d="M3.97485 0.135493C2.12085 0.528384 0.548603 2.0893 0.156214 3.92659C-0.0294475 4.79605 -0.0294475 37.4691 0.156214 38.3386C0.552883 40.196 2.12764 41.7443 4.01682 42.1343C4.90115 42.3168 38.1328 42.3168 39.0171 42.1343C40.9063 41.7443 42.4811 40.196 42.8777 38.3386C43.0634 37.4691 43.0634 4.79605 42.8777 3.92659C42.4811 2.06917 40.9063 0.520874 39.0171 0.130871C38.1573 -0.0465524 4.81335 -0.0421787 3.97485 0.135493ZM38.8358 3.55523C39.0063 3.6687 39.249 3.90695 39.3752 4.08462L39.6046 4.40761V21.1316V37.8556L39.3948 38.1602C39.2794 38.3279 39.0372 38.5666 38.8565 38.6906L38.528 38.9162L33.4637 38.9393L28.3995 38.9624V32.2344V25.5063H31.0015C32.4325 25.5063 33.6034 25.4853 33.6034 25.4597C33.6034 25.3863 34.3533 20.8697 34.4075 20.6168L34.4561 20.3899H31.4226H28.389L28.4153 18.3062C28.4401 16.3359 28.452 16.2 28.6344 15.8099C28.8868 15.2706 29.3274 14.8344 29.8594 14.5978C30.2631 14.4181 30.4065 14.4055 32.3234 14.3811L34.3588 14.3551V11.8022V9.2493L32.2814 9.25038C30.5771 9.25128 30.0665 9.27934 29.438 9.40692C26.4916 10.0048 24.2388 12.1022 23.4318 14.9987C23.2724 15.571 23.2478 15.9158 23.2161 18.0173L23.1804 20.3899H20.67H18.1596V22.9481V25.5063H20.6776H23.1956V32.2333V38.9603L13.8508 38.9383L4.50599 38.9162L4.17747 38.6906C3.99676 38.5666 3.75453 38.3279 3.63912 38.1603L3.42929 37.8556L3.40746 21.3154C3.39294 10.2746 3.41409 4.67152 3.47125 4.46307C3.57449 4.08594 4.14331 3.50193 4.50951 3.39704C4.66462 3.35256 11.6832 3.32731 21.649 3.33531L38.5259 3.34893L38.8358 3.55523Z" fill="white" fill-opacity="0.7"/>
</svg>
