<svg width="43" height="43" viewBox="0 0 43 43" fill="none" xmlns="http://www.w3.org/2000/svg">
<path fill-rule="evenodd" clip-rule="evenodd" d="M9.11824 0.0605522C6.75038 0.369698 4.5548 1.48148 2.89504 3.21189C1.45858 4.70948 0.523962 6.56014 0.115246 8.71605C-0.0384153 9.52646 -0.0384153 32.7536 0.115246 33.564C0.952857 37.9826 4.08339 41.1824 8.4868 42.1209C9.14693 42.2617 9.9178 42.2708 21.1403 42.2708C34.4062 42.2708 33.4859 42.3065 35.2411 41.7229C38.3445 40.691 40.9378 37.992 41.8497 34.8454C42.2861 33.3397 42.2708 33.8392 42.2708 21.0987C42.2708 7.87876 42.3064 8.79388 41.7229 7.03907C40.7293 4.05083 38.2202 1.54847 35.2165 0.549909C33.4957 -0.0221513 34.5121 0.0184561 21.4711 0.00158459C14.8991 -0.00685117 9.43482 0.0192004 9.11824 0.0605522ZM33.463 4.41927C35.7419 5.11489 37.2721 6.6741 37.8675 8.90734L38.0529 9.60288V21.14V32.6772L37.8675 33.3727C37.2612 35.6466 35.6467 37.2612 33.3728 37.8675L32.6773 38.0529H21.0989H9.52059L8.86004 37.8617C6.59556 37.2062 5.06764 35.6789 4.41801 33.4215L4.22763 32.7599V21.14V9.52018L4.41801 8.85855C4.90967 7.15014 5.91013 5.85741 7.41167 4.99042C7.8839 4.71775 8.93456 4.36502 9.54564 4.27396C9.80475 4.23534 15.1526 4.20962 21.4297 4.21682L32.8427 4.22988L33.463 4.41927ZM31.2137 8.51756C30.3912 8.74293 29.8522 9.31342 29.6636 10.1583C29.4688 11.0306 29.9335 11.987 30.7558 12.406C32.7278 13.4112 34.6742 11.1799 33.4352 9.33459C32.9818 8.65948 32.0059 8.30055 31.2137 8.51756ZM19.7042 10.6421C15.7148 11.1945 12.3771 13.9238 11.1364 17.648C10.7089 18.9312 10.5994 19.6434 10.5994 21.14C10.5994 22.6366 10.7089 23.3489 11.1364 24.632C12.3052 28.1404 15.2914 30.737 19.0727 31.533C20.0516 31.7391 22.2305 31.7389 23.2078 31.5327C26.9941 30.7338 29.9748 28.142 31.1441 24.632C31.5716 23.3489 31.6811 22.6366 31.6811 21.14C31.6811 20.1442 31.6411 19.5854 31.5328 19.0724C31.0741 16.8982 30.0952 15.0684 28.6048 13.5992C27.1169 12.1323 25.3488 11.1948 23.2492 10.7594C22.463 10.5964 20.5027 10.5315 19.7042 10.6421ZM22.877 15.0234C25.0706 15.6292 26.6737 17.2439 27.2715 19.4494C27.5221 20.3737 27.5221 21.9063 27.2715 22.8306C26.6694 25.0522 25.0524 26.6692 22.8309 27.2713C21.8801 27.529 20.3578 27.5289 19.446 27.2712C17.1951 26.6348 15.6391 25.0794 15.0084 22.8354C14.7448 21.8977 14.7448 20.3823 15.0084 19.4446C15.4846 17.7503 16.4931 16.4451 17.9976 15.5765C18.4624 15.3081 19.5103 14.954 20.1316 14.8555C20.8291 14.7448 22.1641 14.8264 22.877 15.0234Z" fill="white" fill-opacity="0.7"/>
</svg>
