<svg width="236" height="96" viewBox="0 0 236 96" fill="none" xmlns="http://www.w3.org/2000/svg">
<path d="M56.7919 42.0247C52.5888 39.8822 48.1611 39.7629 43.4921 41.7739L43.4919 41.7736C43.7253 41.3492 43.9017 41.0369 44.0703 40.7205C46.1174 36.8776 47.3001 32.8201 47.1267 28.4212C47.0118 25.5072 45.9984 22.8718 44.7553 20.2776C43.1118 16.8479 40.116 13.1439 37.788 10.5395C36.824 9.461 35.0446 10.3885 35.397 11.7928C35.4009 11.8083 35.4048 11.8238 35.4088 11.8393C36.4423 15.8877 36.9563 19.8494 37.194 24.0269C37.5293 29.5949 37.2196 35.1832 36.2712 40.6793C35.6056 44.6944 34.3119 48.5759 33.9546 52.6492C33.6934 55.627 33.7188 58.2198 33.8823 61.4118C34.1231 66.1152 35.679 69.8258 38.3507 73.3092C38.3507 73.3092 44.2931 81.1782 57.8432 80.7088C68.3144 80.3461 72.8744 73.87 72.8744 73.87C73.0958 73.5304 73.1742 73.3907 73.2706 73.2651C78.271 66.751 77.3967 57.4186 71.2461 52.0338C68.9091 49.9878 66.1352 48.8686 63.0608 48.5709C59.0973 48.1871 55.382 48.9517 52.2478 51.5241C48.7647 54.383 46.9314 58.0884 47.6211 62.6558C48.4126 67.8974 54.3306 72.47 60.2356 69.8191C63.1997 68.4884 64.3988 65.7285 63.4125 62.3417L63.3889 62.2742C63.2434 61.862 62.6917 61.7052 62.2267 62.3106C61.8234 62.8615 61.3491 63.3561 60.8164 63.7817C58.5127 65.6048 54.8754 64.547 54.0248 61.8595C53.6783 60.7649 53.8867 59.7446 54.5077 58.7871C56.7856 55.2751 61.2261 54.3187 64.9755 56.5408C68.5049 58.6325 69.977 62.279 68.9026 66.266C68.0306 69.502 66.3093 72.1013 63.2811 73.6847C60.9387 74.9095 58.4237 75.2154 55.8279 74.9186C52.9103 74.5851 50.0844 73.93 47.6944 72.0941C45.0061 70.029 43.4537 67.2252 42.7781 63.9482C41.4506 57.5092 43.7555 52.3623 48.5316 48.1389C51.025 46.222 53.7805 44.6769 56.7129 43.5514C56.8642 43.4945 56.9956 43.3944 57.091 43.2634C57.1865 43.1324 57.2418 42.9762 57.2502 42.814C57.2586 42.6519 57.2196 42.4908 57.1382 42.3506C57.0568 42.2103 56.9364 42.0971 56.7919 42.0247Z" fill="white"/>
<path d="M88.8417 44.6711H108.575C111.371 44.6711 111.618 46.609 111.618 51.7628C111.618 53.0822 110.878 54.5253 109.357 54.5253C107.712 54.5253 107.013 53.0822 106.356 51.2681C105.533 49.0829 105.163 45.9082 102.697 45.9082C101.874 45.9082 101.792 55.0199 101.792 59.8439C101.792 64.6679 101.874 71.0586 103.93 72.2957C104.464 72.6254 104.547 73.5325 103.93 73.5325H93.4873C92.8708 73.5325 92.953 72.6254 93.4873 72.2957C95.5431 71.0586 95.6253 64.6679 95.6253 59.8439C95.6253 55.0199 95.543 45.9082 94.7208 45.9082C92.254 45.9082 91.8839 49.0829 91.0616 51.2681C90.404 53.0822 89.705 54.5253 88.0605 54.5253C86.5393 54.5253 85.7993 53.0822 85.7993 51.7628C85.7993 46.609 86.0461 44.6711 88.8417 44.6711Z" fill="white" fill-opacity="0.87"/>
<path d="M111.125 63.2248C111.125 57.1226 116.141 52.1338 122.226 52.1338C128.269 52.1338 133.285 57.1226 133.285 63.2248C133.285 69.2858 128.31 74.357 122.226 74.357C116.141 74.357 111.125 69.2858 111.125 63.2248ZM118.484 64.9978C120.417 68.9971 123.048 72.378 125.432 72.378C125.803 72.3796 126.169 72.2948 126.501 72.1305C129.05 70.8937 128.063 66.0284 125.885 61.452C123.993 57.4526 121.362 54.0717 119.019 54.0717C118.648 54.0702 118.283 54.1549 117.95 54.319C115.401 55.556 116.347 60.38 118.484 64.9978Z" fill="white" fill-opacity="0.87"/>
<path d="M134.642 72.2957C136.328 71.2648 136.369 69.2034 136.369 67.1006V58.5658C136.369 56.6692 136.245 55.1437 134.642 54.1542C134.107 53.8244 134.025 52.9585 134.642 52.9174L142.165 52.2576C142.317 52.2294 142.474 52.2365 142.622 52.2784C142.771 52.3204 142.908 52.396 143.023 52.4995C143.138 52.6029 143.228 52.7316 143.286 52.8755C143.344 53.0194 143.369 53.1747 143.358 53.3296V67.1417C143.358 69.2034 143.152 71.1411 145.084 72.2957C145.619 72.6254 145.701 73.5325 145.084 73.5325H134.642C134.025 73.5325 134.107 72.6254 134.642 72.2957ZM136.245 47.4748C136.244 46.7551 136.454 46.051 136.851 45.4517C137.247 44.8524 137.812 44.3849 138.473 44.1083C139.134 43.8316 139.861 43.7583 140.564 43.8977C141.266 44.037 141.911 44.3827 142.418 44.891C142.925 45.3993 143.271 46.0474 143.411 46.7531C143.551 47.4589 143.48 48.1907 143.207 48.8558C142.933 49.5209 142.469 50.0894 141.874 50.4895C141.279 50.8895 140.579 51.103 139.863 51.103C139.388 51.1064 138.917 51.0149 138.477 50.8339C138.037 50.6528 137.637 50.3858 137.301 50.0484C136.964 49.7109 136.698 49.3097 136.516 48.8679C136.335 48.4261 136.243 47.9526 136.245 47.4748Z" fill="white" fill-opacity="0.87"/>
<path d="M147.839 44.6711H160.419C165.476 44.6711 171.478 45.8669 171.478 51.5568C171.478 55.2261 168.642 57.164 165.641 58.0298C169.546 58.8957 173.534 60.8747 173.534 65.2452C173.534 71.9246 167.079 73.5325 160.419 73.5325H147.839C147.222 73.5325 147.304 72.6254 147.839 72.2957C149.483 71.306 149.483 65.6576 149.483 59.1844C149.483 52.7112 149.689 47.0212 147.839 45.9082C147.304 45.5782 147.222 44.6711 147.839 44.6711ZM156.472 57.4527C162.557 57.3702 164.489 55.8034 164.489 51.7217C164.489 48.7943 163.338 45.9082 160.419 45.9082C156.267 45.9082 156.431 51.5154 156.472 57.4527ZM156.472 59.1019C156.472 65.5749 156.144 72.2957 160.419 72.2957C164.407 72.2957 166.545 68.5436 166.545 65.6576C166.545 60.0914 163.626 58.772 156.472 58.6895V59.1019Z" fill="white" fill-opacity="0.87"/>
<path d="M175.385 63.3072C175.385 56.6691 180.482 52.1338 185.909 52.1338C192.857 52.1338 195.365 57.9061 196.146 60.7098C196.475 61.4931 195.941 62.1941 194.954 62.1941H181.428C182.661 66.3584 185.293 70.9761 189.281 70.9761C192.487 70.9761 194.296 68.7498 194.872 67.8838C195.118 67.5127 195.406 67.3479 195.694 67.3479C196.146 67.3479 196.434 67.8014 196.105 68.5436C194.995 70.8937 191.418 74.357 186.526 74.357C180.852 74.357 175.385 69.8217 175.385 63.3072ZM190.596 60.9571C189.733 58.607 187.554 53.783 184.141 53.783C182.003 53.783 180.647 55.2674 180.647 57.535C180.682 58.6882 180.833 59.8348 181.099 60.9571H190.596Z" fill="white" fill-opacity="0.87"/>
<path d="M198.531 52.876L206.055 52.2162C206.209 52.1963 206.365 52.2107 206.513 52.2584C206.661 52.3061 206.797 52.3858 206.91 52.4921C207.024 52.5983 207.113 52.7284 207.172 52.8731C207.23 53.0178 207.256 53.1736 207.247 53.3295V57.1226C208.563 53.9479 211.564 52.1338 214.976 52.1338C221.554 52.1338 220.609 59.0194 216.292 59.0194C213.208 59.0194 213.373 55.0199 211.194 55.0199C208.522 55.0199 207.288 60.8747 207.247 61.2871V62.359C207.247 65.8635 207.041 71.141 208.974 72.2956C209.508 72.6254 209.59 73.5324 208.974 73.5324H198.531C197.915 73.5324 197.997 72.6254 198.531 72.2956C200.217 71.2648 200.258 67.5952 200.258 65.4924V59.8851C200.258 57.7413 200.135 55.0612 198.531 54.1128C197.997 53.783 197.915 52.9173 198.531 52.876Z" fill="white" fill-opacity="0.87"/>
</svg>
