<svg width="44" height="43" viewBox="0 0 44 43" fill="none" xmlns="http://www.w3.org/2000/svg">
<path fill-rule="evenodd" clip-rule="evenodd" d="M10.1424 0.0868548C9.20884 0.194041 8.00986 0.518623 7.07249 0.918135C3.3887 2.48787 0.902968 5.78267 0.377924 9.79131C0.190432 11.2227 0.190432 31.7685 0.377924 33.1999C0.638012 35.1854 1.35584 36.9721 2.50966 38.5059C4.36745 40.9755 7.16456 42.5639 10.2648 42.91C10.7972 42.9693 14.7143 43 21.7716 43C33.3608 43 33.5443 42.9937 35.1005 42.5424C39.4298 41.2866 42.5087 37.6894 43.0967 33.1999C43.2842 31.7685 43.2842 11.2227 43.0967 9.79131C42.426 4.67074 38.5471 0.788352 33.4311 0.117095C32.6169 0.0102454 30.8267 -0.00714296 21.6281 0.00218122C15.6643 0.00822934 10.4958 0.0463661 10.1424 0.0868548ZM33.2821 2.8873C36.0289 3.33327 38.2169 4.87226 39.4349 7.21532C39.9153 8.13933 40.1559 8.87292 40.329 9.9405C40.5128 11.075 40.5128 31.9162 40.329 33.0507C39.8834 35.8 38.3458 37.9899 36.0048 39.209C35.0588 39.7018 34.3181 39.9416 33.2352 40.106C32.052 40.2856 11.4227 40.2856 10.2394 40.106C7.4891 39.6886 5.26689 38.1365 4.03972 35.7759C3.55933 34.8518 3.31871 34.1183 3.14565 33.0507C2.96185 31.9162 2.96185 11.075 3.14565 9.9405C3.31871 8.87292 3.55933 8.13933 4.03972 7.21532C5.24331 4.89998 7.43514 3.3441 10.1327 2.89024C11.1567 2.71787 32.2222 2.71527 33.2821 2.8873ZM20.8141 8.86334C20.6987 8.88527 20.2644 8.95969 19.849 9.02883C15.7619 9.7089 12.5202 12.6722 11.7559 16.4267C11.2749 18.7896 11.9095 21.2986 13.313 22.5825C14.2448 23.4348 15.0473 23.7327 15.3068 23.3226C15.3726 23.2186 15.5137 22.7868 15.6205 22.363L15.8147 21.5923L15.4217 21.019C14.874 20.2195 14.6897 19.7534 14.5812 18.8929C14.294 16.6154 15.4263 14.0685 17.3253 12.7208C18.7057 11.7411 20.1402 11.314 22.0298 11.3201C23.6228 11.3253 24.8485 11.6594 25.9408 12.3862C27.5402 13.4504 28.2791 15.1314 28.1729 17.4635C28.0211 20.7947 26.7565 23.3918 24.8464 24.2954C24.0968 24.6499 23.174 24.7029 22.4576 24.4325C21.4842 24.0651 20.8889 23.1267 21.0168 22.1615C21.0462 21.9397 21.2207 21.255 21.4044 20.6399C22.2408 17.8403 22.3367 17.4411 22.3486 16.7075C22.3582 16.1186 22.3265 15.9236 22.1673 15.5947C21.3314 13.8671 18.8497 14.1994 17.9214 16.1633C17.3475 17.3772 17.3111 18.545 17.794 20.2411C17.9 20.6132 17.8743 20.7441 16.9297 24.6512C15.7595 29.4913 15.7919 29.3335 15.7265 30.508C15.6797 31.3475 15.7869 33.1928 15.9216 33.8668C15.9915 34.2168 16.1872 34.2541 16.4263 33.9629C17.2437 32.968 18.1666 31.4553 18.6512 30.3158C18.8711 29.7989 20.0588 25.6476 20.0588 25.396C20.0588 25.3816 20.2497 25.5718 20.483 25.8187C21.3606 26.7474 22.5709 27.1674 24.1712 27.0986C25.3369 27.0484 25.9816 26.8899 26.9956 26.404C29.914 25.0054 31.688 21.824 31.8638 17.6735C31.9186 16.3803 31.735 15.2958 31.2772 14.2095C30.3745 12.0672 28.4967 10.3244 26.1744 9.47361C24.9052 9.00858 24.1899 8.88678 22.5346 8.85368C21.7037 8.83713 20.9295 8.84142 20.8141 8.86334Z" fill="white" fill-opacity="0.7"/>
</svg>
