<svg width="43" height="43" viewBox="0 0 43 43" fill="none" xmlns="http://www.w3.org/2000/svg">
<path fill-rule="evenodd" clip-rule="evenodd" d="M10.046 0.0948203C7.59498 0.434376 5.45387 1.49629 3.71471 3.23501C2.12934 4.81991 1.05775 6.85261 0.639755 9.06816C0.501774 9.7992 0.491516 10.638 0.491516 21.142C0.491516 31.646 0.501774 32.4848 0.639755 33.2158C1.28946 36.6593 3.49451 39.5829 6.61298 41.1357C7.49191 41.5733 8.5869 41.9415 9.54963 42.123C10.2809 42.2609 11.1199 42.2712 21.6271 42.2712C32.1343 42.2712 32.9733 42.2609 33.7046 42.123C37.1492 41.4735 40.0736 39.2691 41.6268 36.1516C42.0646 35.2729 42.4329 34.1782 42.6145 33.2158C42.7524 32.4848 42.7627 31.646 42.7627 21.142C42.7627 10.638 42.7524 9.7992 42.6145 9.06816C41.9648 5.62463 39.7597 2.70103 36.6412 1.1483C35.8095 0.734154 34.6975 0.351596 33.7873 0.166354C33.1442 0.0355263 32.1336 0.0217158 21.958 0.00459739C13.1272 -0.0102055 10.6697 0.00840147 10.046 0.0948203ZM33.746 2.96988C35.647 3.49137 37.2464 4.54543 38.3562 6.00835C38.9173 6.74791 39.5374 8.03775 39.8072 9.02681L40.0329 9.85378V21.142V32.4302L39.8053 33.2572C39.2818 35.1595 38.2282 36.7568 36.7653 37.8661C36.0255 38.427 34.7353 39.0468 33.746 39.3166L32.9187 39.5422H21.6271H10.3355L9.50827 39.3166C6.4616 38.4859 4.29022 36.3145 3.44893 33.2572L3.22136 32.4302V21.142V9.85378L3.44893 9.02681C4.1179 6.59567 5.57092 4.77062 7.72138 3.66024C8.484 3.26652 9.57751 2.91406 10.4182 2.79092C10.6912 2.75098 15.8655 2.72386 21.9166 2.73064L32.9187 2.74296L33.746 2.96988ZM25.0601 9.94442C23.7681 10.23 22.8586 10.7343 21.868 11.7145C20.8477 12.7241 20.3407 13.6583 20.0775 15.0135C19.9708 15.5627 19.8978 15.766 19.8072 15.7658C19.5297 15.7651 18.267 15.4194 17.5109 15.1372C15.4931 14.3838 14.1554 13.4921 12.4036 11.733C11.6665 10.9929 11.4346 10.8083 11.1834 10.7615C10.3669 10.6094 9.77033 11.0412 9.47476 11.998C9.02161 13.4646 8.76352 15.9214 8.82523 18.1812C8.86833 19.7617 9.02062 20.4654 9.58057 21.6712C10.2908 23.201 11.8887 25.0738 13.5677 26.3444C14.1915 26.8165 14.2067 26.7886 13.1481 27.1189C12.1635 27.4261 11.4466 27.5205 9.97681 27.5366C8.77468 27.5497 8.62992 27.5671 8.41815 27.724C8.01628 28.0219 7.81246 28.4004 7.81246 28.8492C7.81246 29.6521 8.06997 29.9019 9.77678 30.7542C12.1761 31.9525 14.3743 32.4715 17.0503 32.4715C21.2506 32.4715 24.9726 31.0414 27.914 28.2971C30.762 25.6399 32.5283 21.9719 32.8736 17.9977L32.9435 17.1933L33.7924 15.9245C34.7918 14.4305 35.0439 13.9073 35.3238 12.7464C35.4954 12.0343 35.5167 11.8272 35.4452 11.5616C35.195 10.633 34.3869 10.3255 33.3259 10.7551C33.0565 10.8642 32.3405 11.0331 31.7349 11.1305L30.6338 11.3077L30.2366 11.0163C29.7371 10.6497 28.768 10.1899 28.1208 10.0123C27.414 9.81839 25.793 9.78241 25.0601 9.94442ZM27.4233 12.6746C28.0591 12.8631 28.4629 13.0834 29.0151 13.5433C29.7597 14.1634 30.0699 14.2047 31.661 13.8948C31.8784 13.8525 31.8432 13.924 31.0772 15.0794L30.262 16.309L30.1674 17.4719C30.0158 19.3341 29.6407 20.7375 28.8552 22.3815C26.9082 26.4559 23.3896 29.0367 18.9818 29.6234C17.9151 29.7654 16.1977 29.7758 15.2681 29.646L14.5757 29.5493L15.345 29.1898C16.5 28.65 17.7038 27.8203 17.9055 27.4252C18.1829 26.8817 18.0786 26.1882 17.6639 25.8186C17.5644 25.73 17.0956 25.4137 16.6221 25.1157C14.493 23.7759 12.8919 22.1719 12.119 20.6045C11.5632 19.4773 11.5084 19.1297 11.565 17.0898C11.5921 16.1119 11.6377 15.2111 11.6663 15.088L11.7183 14.8643L12.2678 15.3081C13.9049 16.6304 16.2518 17.7574 18.4423 18.2731C20.2413 18.6967 21.6694 18.7968 22.1233 18.5311C22.656 18.2192 22.9164 17.6217 22.7785 17.0278C22.4995 15.8267 22.8789 14.5388 23.7761 13.642C24.7218 12.6965 26.1865 12.3081 27.4233 12.6746Z" fill="white" fill-opacity="0.7"/>
</svg>
