<svg width="31" height="32" viewBox="0 0 31 32" fill="none" xmlns="http://www.w3.org/2000/svg">
<path fill-rule="evenodd" clip-rule="evenodd" d="M28.764 31.7642L21.1448 22.9354L22.659 21.6287L30.2781 30.4575L28.764 31.7642Z" fill="white"/>
<path fill-rule="evenodd" clip-rule="evenodd" d="M15.2354 23.9742C21.2293 22.9356 25.2464 17.2347 24.2078 11.2408C23.1692 5.24693 17.4683 1.22986 11.4744 2.26844C5.4805 3.30701 1.46342 9.00795 2.502 15.0018C3.54057 20.9957 9.24151 25.0128 15.2354 23.9742ZM15.5769 25.9449C22.6591 24.7177 27.4056 17.9816 26.1784 10.8994C24.9513 3.81712 18.2152 -0.929357 11.1329 0.297799C4.05069 1.52496 -0.695792 8.26105 0.531364 15.3433C1.75852 22.4255 8.49462 27.172 15.5769 25.9449Z" fill="white"/>
</svg>
