<svg width="125" height="51" viewBox="0 0 125 51" fill="none" xmlns="http://www.w3.org/2000/svg">
<path d="M30.0805 22.3256C27.8543 21.1874 25.5091 21.124 23.0361 22.1924L23.036 22.1922C23.1596 21.9668 23.2531 21.8009 23.3424 21.6327C24.4266 19.5912 25.053 17.4357 24.9612 15.0988C24.9003 13.5507 24.3636 12.1506 23.7051 10.7725C22.8347 8.95045 21.2479 6.98271 20.0149 5.59911C19.5043 5.02616 18.5618 5.51888 18.7484 6.26492C18.7505 6.27316 18.7526 6.2814 18.7547 6.28964C19.3021 8.44035 19.5743 10.545 19.7002 12.7643C19.8778 15.7223 19.7138 18.6911 19.2115 21.6109C18.8589 23.7439 18.1737 25.8059 17.9845 27.9699C17.8461 29.5519 17.8596 30.9293 17.9461 32.625C18.0737 35.1237 18.8978 37.095 20.3129 38.9455C20.3129 38.9455 23.4604 43.1259 30.6373 42.8766C36.1835 42.6839 38.5987 39.2435 38.5987 39.2435C38.716 39.063 38.7575 38.9888 38.8086 38.9221C41.4571 35.4615 40.994 30.5037 37.7363 27.643C36.4985 26.556 35.0293 25.9615 33.4009 25.8033C31.3015 25.5994 29.3337 26.0056 27.6737 27.3722C25.8288 28.891 24.8577 30.8595 25.223 33.2859C25.6423 36.0705 28.7768 38.4997 31.9045 37.0914C33.4744 36.3845 34.1096 34.9183 33.5872 33.119L33.5747 33.0832C33.4976 32.8642 33.2054 32.7809 32.9591 33.1025C32.7454 33.3952 32.4943 33.658 32.2121 33.884C30.9919 34.8525 29.0654 34.2906 28.6148 32.8629C28.4313 32.2814 28.5417 31.7393 28.8706 31.2306C30.0771 29.3649 32.4291 28.8568 34.415 30.0373C36.2844 31.1485 37.0641 33.0857 36.495 35.2038C36.0332 36.9229 35.1215 38.3038 33.5176 39.145C32.2769 39.7957 30.9448 39.9582 29.5699 39.8005C28.0246 39.6233 26.5278 39.2753 25.2619 38.3C23.838 37.2029 23.0158 35.7134 22.6579 33.9725C21.9548 30.5518 23.1756 27.8175 25.7053 25.5738C27.026 24.5555 28.4855 23.7346 30.0386 23.1367C30.1188 23.1064 30.1884 23.0533 30.2389 22.9837C30.2895 22.9141 30.3188 22.8311 30.3232 22.745C30.3276 22.6588 30.307 22.5732 30.2639 22.4987C30.2208 22.4242 30.157 22.3641 30.0805 22.3256Z" fill="#6C2382"/>
<path d="M47.056 23.7315H57.5082C58.989 23.7315 59.1196 24.761 59.1196 27.499C59.1196 28.1999 58.7277 28.9665 57.9219 28.9665C57.0509 28.9665 56.6808 28.1999 56.3324 27.2362C55.8968 26.0753 55.7009 24.3887 54.3944 24.3887C53.9588 24.3887 53.9153 29.2293 53.9153 31.7921C53.9153 34.3548 53.9588 37.7499 55.0476 38.4071C55.3307 38.5822 55.3742 39.0641 55.0476 39.0641H49.5166C49.19 39.0641 49.2335 38.5823 49.5166 38.4071C50.6054 37.7499 50.649 34.3548 50.649 31.7921C50.649 29.2293 50.6054 24.3887 50.1699 24.3887C48.8633 24.3887 48.6673 26.0753 48.2318 27.2362C47.8834 28.1999 47.5132 28.9665 46.6422 28.9665C45.8365 28.9665 45.4445 28.1999 45.4445 27.499C45.4445 24.761 45.5752 23.7315 47.056 23.7315Z" fill="#3A204F"/>
<path d="M58.8587 33.5882C58.8587 30.3464 61.5154 27.6961 64.7382 27.6961C67.9391 27.6961 70.5957 30.3464 70.5957 33.5882C70.5957 36.8081 67.9609 39.5022 64.7382 39.5022C61.5154 39.5022 58.8587 36.8081 58.8587 33.5882ZM62.7565 34.5301C63.78 36.6547 65.1737 38.4509 66.4366 38.4509C66.6328 38.4517 66.8266 38.4067 67.0027 38.3194C68.3528 37.6623 67.8302 35.0776 66.6762 32.6464C65.6745 30.5217 64.2809 28.7256 63.0396 28.7256C62.8434 28.7248 62.6496 28.7698 62.4735 28.857C61.1234 29.5142 61.6242 32.0769 62.7565 34.5301Z" fill="#3A204F"/>
<path d="M71.3146 38.4071C72.2074 37.8595 72.2292 36.7643 72.2292 35.6472V31.1131C72.2292 30.1055 72.1638 29.2951 71.3146 28.7694C71.0315 28.5942 70.9879 28.1342 71.3146 28.1124L75.2995 27.7619C75.3799 27.7469 75.4627 27.7507 75.5414 27.7729C75.6202 27.7952 75.6929 27.8354 75.7538 27.8903C75.8148 27.9453 75.8625 28.0137 75.8932 28.0901C75.9239 28.1665 75.9368 28.2491 75.931 28.3313V35.6691C75.931 36.7643 75.8221 37.7937 76.8456 38.4071C77.1286 38.5823 77.1722 39.0641 76.8456 39.0641H71.3146C70.9879 39.0641 71.0315 38.5823 71.3146 38.4071ZM72.1638 25.221C72.1629 24.8386 72.2745 24.4646 72.4845 24.1462C72.6945 23.8279 72.9935 23.5795 73.3436 23.4325C73.6936 23.2856 74.0791 23.2466 74.4511 23.3206C74.8231 23.3947 75.165 23.5783 75.4334 23.8484C75.7019 24.1184 75.8849 24.4627 75.9592 24.8376C76.0335 25.2126 75.9958 25.6013 75.8509 25.9546C75.706 26.308 75.4604 26.61 75.1452 26.8225C74.83 27.0351 74.4593 27.1485 74.0801 27.1485C73.8283 27.1503 73.5787 27.1017 73.3458 27.0055C73.1128 26.9093 72.901 26.7675 72.7228 26.5882C72.5446 26.4089 72.4034 26.1958 72.3075 25.9611C72.2115 25.7264 72.1627 25.4748 72.1638 25.221Z" fill="#3A204F"/>
<path d="M78.3044 23.7315H84.9678C87.6463 23.7315 90.8254 24.3668 90.8254 27.3895C90.8254 29.3389 89.3229 30.3684 87.7333 30.8283C89.802 31.2883 91.9143 32.3397 91.9143 34.6615C91.9143 38.2099 88.4954 39.0641 84.9678 39.0641H78.3044C77.9779 39.0641 78.0214 38.5823 78.3044 38.4071C79.1755 37.8813 79.1755 34.8806 79.1755 31.4417C79.1755 28.0028 79.2844 24.98 78.3044 24.3887C78.0214 24.2134 77.9779 23.7315 78.3044 23.7315ZM82.8773 30.5217C86.1001 30.4779 87.1236 29.6456 87.1236 27.4771C87.1236 25.9219 86.5139 24.3887 84.9678 24.3887C82.7685 24.3887 82.8556 27.3676 82.8773 30.5217ZM82.8773 31.3979C82.8773 34.8367 82.7032 38.4071 84.9678 38.4071C87.08 38.4071 88.2124 36.4138 88.2124 34.8806C88.2124 31.9236 86.6663 31.2226 82.8773 31.1788V31.3979Z" fill="#3A204F"/>
<path d="M92.8944 33.632C92.8944 30.1055 95.5946 27.6961 98.4689 27.6961C102.149 27.6961 103.477 30.7627 103.891 32.2521C104.065 32.6682 103.782 33.0407 103.26 33.0407H96.0954C96.7486 35.2529 98.1422 37.7061 100.255 37.7061C101.953 37.7061 102.911 36.5233 103.216 36.0633C103.347 35.8662 103.499 35.7786 103.651 35.7786C103.891 35.7786 104.043 36.0195 103.869 36.4138C103.281 37.6623 101.387 39.5022 98.7956 39.5022C95.7905 39.5022 92.8944 37.0928 92.8944 33.632ZM100.951 32.3835C100.494 31.135 99.3399 28.5723 97.5326 28.5723C96.4002 28.5723 95.6816 29.3608 95.6816 30.5655C95.7 31.1781 95.7802 31.7873 95.9211 32.3835H100.951Z" fill="#3A204F"/>
<path d="M105.154 28.0904L109.139 27.7399C109.221 27.7293 109.304 27.737 109.382 27.7623C109.46 27.7876 109.532 27.83 109.592 27.8864C109.653 27.9429 109.7 28.012 109.731 28.0889C109.761 28.1657 109.775 28.2485 109.771 28.3313V30.3464C110.468 28.6599 112.057 27.6961 113.864 27.6961C117.349 27.6961 116.848 31.3541 114.561 31.3541C112.928 31.3541 113.015 29.2293 111.861 29.2293C110.446 29.2293 109.793 32.3397 109.771 32.5588V33.1283C109.771 34.99 109.662 37.7937 110.685 38.4071C110.968 38.5823 111.012 39.0641 110.685 39.0641H105.154C104.828 39.0641 104.871 38.5823 105.154 38.4071C106.047 37.8594 106.069 35.91 106.069 34.7929V31.814C106.069 30.6751 106.004 29.2513 105.154 28.7475C104.871 28.5723 104.828 28.1123 105.154 28.0904Z" fill="#3A204F"/>
</svg>
