<svg width="344" height="140" viewBox="0 0 344 140" fill="none" xmlns="http://www.w3.org/2000/svg">
<path d="M82.6947 61.7985C76.5861 58.6964 70.1509 58.5237 63.365 61.4355L63.3646 61.435C63.7038 60.8206 63.9603 60.3684 64.2054 59.9102C67.1806 54.3461 68.8995 48.4711 68.6474 42.1019C68.4804 37.8827 67.0075 34.0667 65.2008 30.3106C62.8122 25.3447 58.4581 19.9816 55.0747 16.2106C53.6737 14.6491 51.0875 15.992 51.5996 18.0253C51.6053 18.0477 51.611 18.0702 51.6167 18.0927C53.1188 23.9544 53.8659 29.6907 54.2113 35.7393C54.6986 43.8012 54.2486 51.8926 52.8702 59.8505C51.9028 65.6642 50.0226 71.2842 49.5033 77.182C49.1237 81.4936 49.1606 85.2478 49.3982 89.8695C49.7482 96.6796 52.0095 102.052 55.8925 107.096C55.8925 107.096 64.5292 118.49 84.2227 117.81C99.4414 117.285 106.069 107.908 106.069 107.908C106.391 107.416 106.505 107.214 106.645 107.032C113.912 97.6002 112.642 84.0877 103.702 76.2909C100.306 73.3284 96.2742 71.708 91.8059 71.2769C86.0454 70.7212 80.6456 71.8283 76.0905 75.553C71.0281 79.6924 68.3635 85.0575 69.366 91.6707C70.5164 99.26 79.1175 105.881 87.6997 102.043C92.0078 100.116 93.7505 96.1198 92.3171 91.216L92.2828 91.1181C92.0713 90.5213 91.2695 90.2944 90.5936 91.1709C90.0074 91.9685 89.3182 92.6847 88.544 93.3009C85.1958 95.9405 79.9093 94.409 78.673 90.5178C78.1695 88.9329 78.4723 87.4555 79.3749 86.0691C82.6855 80.984 89.1394 79.5993 94.5888 82.8167C99.7183 85.8453 101.858 91.1252 100.296 96.8979C99.0289 101.583 96.5273 105.347 92.1261 107.64C88.7217 109.413 85.0664 109.856 81.2937 109.426C77.0533 108.943 72.9462 107.995 69.4726 105.337C65.5653 102.347 63.3092 98.2868 62.3272 93.542C60.3978 84.2189 63.7478 76.7666 70.6893 70.6514C74.3132 67.876 78.318 65.6388 82.58 64.0092C82.7998 63.9267 82.9908 63.7817 83.1295 63.5921C83.2682 63.4024 83.3486 63.1763 83.3608 62.9415C83.373 62.7067 83.3164 62.4735 83.1981 62.2704C83.0798 62.0674 82.9048 61.9034 82.6947 61.7985Z" fill="white"/>
<path d="M129.275 65.6304H157.956C162.02 65.6304 162.378 68.4363 162.378 75.8985C162.378 77.8089 161.303 79.8983 159.092 79.8983C156.702 79.8983 155.686 77.8089 154.73 75.1822C153.535 72.0182 152.997 67.4215 149.412 67.4215C148.217 67.4215 148.098 80.6146 148.098 87.5993C148.098 94.584 148.217 103.837 151.204 105.628C151.981 106.106 152.101 107.419 151.204 107.419H136.027C135.131 107.419 135.251 106.106 136.027 105.628C139.015 103.837 139.135 94.584 139.135 87.5993C139.135 80.6146 139.015 67.4215 137.82 67.4215C134.235 67.4215 133.697 72.0182 132.502 75.1822C131.546 77.8089 130.53 79.8983 128.14 79.8983C125.929 79.8983 124.854 77.8089 124.854 75.8985C124.854 68.4363 125.212 65.6304 129.275 65.6304Z" fill="#FAF8FC"/>
<path d="M161.662 92.4946C161.662 83.6592 168.952 76.4358 177.795 76.4358C186.579 76.4358 193.869 83.6592 193.869 92.4946C193.869 101.27 186.639 108.613 177.795 108.613C168.952 108.613 161.662 101.27 161.662 92.4946ZM172.358 95.0618C175.166 100.852 178.99 105.748 182.456 105.748C182.994 105.75 183.526 105.627 184.009 105.389C187.714 103.599 186.28 96.554 183.113 89.9277C180.365 84.137 176.541 79.2417 173.135 79.2417C172.596 79.2396 172.065 79.3621 171.581 79.5998C167.876 81.3909 169.251 88.3756 172.358 95.0618Z" fill="#FAF8FC"/>
<path d="M195.841 105.628C198.291 104.136 198.351 101.151 198.351 98.1062V85.7484C198.351 83.0024 198.172 80.7936 195.841 79.3609C195.064 78.8834 194.945 77.6296 195.841 77.57L206.776 76.6148C206.996 76.5739 207.224 76.5842 207.44 76.6449C207.656 76.7056 207.855 76.8151 208.022 76.9649C208.19 77.1148 208.321 77.301 208.405 77.5094C208.489 77.7177 208.525 77.9427 208.509 78.1669V98.1657C208.509 101.151 208.21 103.956 211.018 105.628C211.795 106.106 211.914 107.419 211.018 107.419H195.841C194.945 107.419 195.064 106.106 195.841 105.628ZM198.172 69.6896C198.169 68.6475 198.475 67.6281 199.052 66.7604C199.628 65.8927 200.448 65.2157 201.409 64.8152C202.369 64.4146 203.427 64.3085 204.448 64.5103C205.469 64.712 206.407 65.2126 207.143 65.9486C207.88 66.6845 208.382 67.6229 208.586 68.6448C208.79 69.6667 208.686 70.7262 208.289 71.6892C207.891 72.6522 207.217 73.4754 206.352 74.0546C205.487 74.6339 204.47 74.9431 203.43 74.9431C202.739 74.9479 202.054 74.8154 201.415 74.5533C200.775 74.2912 200.194 73.9046 199.705 73.416C199.216 72.9273 198.829 72.3464 198.566 71.7067C198.302 71.0671 198.168 70.3815 198.172 69.6896Z" fill="#FAF8FC"/>
<path d="M215.021 65.6304H233.306C240.655 65.6304 249.379 67.3617 249.379 75.6002C249.379 80.9131 245.256 83.719 240.894 84.9725C246.571 86.2264 252.367 89.0918 252.367 95.4198C252.367 105.091 242.985 107.419 233.306 107.419H215.021C214.125 107.419 214.245 106.106 215.021 105.628C217.411 104.195 217.411 96.017 217.411 86.6443C217.411 77.2717 217.71 69.0331 215.021 67.4215C214.245 66.9437 214.125 65.6304 215.021 65.6304ZM227.569 84.137C236.413 84.0176 239.221 81.749 239.221 75.8389C239.221 71.6003 237.548 67.4215 233.306 67.4215C227.271 67.4215 227.51 75.5403 227.569 84.137ZM227.569 86.5249C227.569 95.8973 227.091 105.628 233.306 105.628C239.101 105.628 242.209 100.196 242.209 96.017C242.209 87.9577 237.966 86.0472 227.569 85.9278V86.5249Z" fill="#FAF8FC"/>
<path d="M255.056 92.614C255.056 83.0026 262.465 76.4358 270.353 76.4358C280.451 76.4358 284.096 84.7937 285.231 88.8531C285.709 89.9873 284.932 91.0023 283.498 91.0023H263.84C265.632 97.0318 269.456 103.718 275.252 103.718C279.913 103.718 282.542 100.494 283.379 99.2405C283.737 98.7032 284.155 98.4645 284.574 98.4645C285.231 98.4645 285.649 99.1212 285.171 100.196C283.558 103.599 278.359 108.613 271.249 108.613C263.003 108.613 255.056 102.046 255.056 92.614ZM277.164 89.2112C275.909 85.8085 272.743 78.8238 267.783 78.8238C264.676 78.8238 262.704 80.973 262.704 84.2564C262.755 85.9261 262.975 87.5863 263.361 89.2112H277.164Z" fill="#FAF8FC"/>
<path d="M288.697 77.5104L299.632 76.5552C299.856 76.5264 300.083 76.5472 300.298 76.6162C300.513 76.6853 300.71 76.8008 300.875 76.9546C301.041 77.1084 301.17 77.2967 301.255 77.5062C301.339 77.7158 301.377 77.9414 301.365 78.1671V83.6592C303.277 79.0625 307.639 76.4358 312.598 76.4358C322.159 76.4358 320.784 86.4056 314.51 86.4056C310.029 86.4056 310.268 80.6146 307.101 80.6146C303.217 80.6146 301.425 89.0918 301.365 89.689V91.2411C301.365 96.3153 301.066 103.957 303.874 105.628C304.651 106.106 304.771 107.419 303.874 107.419H288.697C287.801 107.419 287.92 106.106 288.697 105.628C291.147 104.136 291.207 98.8226 291.207 95.778V87.6591C291.207 84.5549 291.028 80.6744 288.697 79.3012C287.92 78.8238 287.801 77.5702 288.697 77.5104Z" fill="#FAF8FC"/>
</svg>
