<svg width="66" height="66" viewBox="0 0 66 66" fill="none" xmlns="http://www.w3.org/2000/svg">
<path fill-rule="evenodd" clip-rule="evenodd" d="M18.5027 0.140602C17.1304 0.513791 15.799 1.70299 15.2624 3.03456C14.9744 3.7496 14.9652 3.90525 14.926 8.69598L14.8858 13.6221L9.31348 13.6608C3.82919 13.699 3.72934 13.7042 2.9997 13.9986C1.96497 14.4161 0.945719 15.3844 0.422355 16.4468L0 17.3045V34.912V52.5194L0.422355 53.3771C0.94559 54.4394 1.96484 55.4077 2.9997 55.8254L3.74108 56.1247L15.9641 56.16L28.1871 56.1955V58.1753V60.1551L27.0583 60.2101C24.6768 60.3259 23.0698 61.6614 22.6364 63.885C22.4977 64.5964 22.5069 64.7345 22.7218 65.1734C22.8541 65.4439 23.1076 65.7374 23.285 65.8254C23.7531 66.0582 42.1673 66.0582 42.6354 65.8254C42.8128 65.7374 43.0663 65.4439 43.1986 65.1734C43.4136 64.7345 43.4227 64.5964 43.284 63.885C42.8506 61.6614 41.2436 60.3259 38.8621 60.2101L37.7333 60.1551V58.1753V56.1955L49.9563 56.16L62.1793 56.1247L62.9207 55.8254C63.9552 55.4078 64.9748 54.4394 65.4981 53.3775L65.9204 52.5203L65.9601 47.8912L66 43.262L65.7119 42.9557C65.3314 42.5506 64.7069 42.547 64.3303 42.9475C64.0541 43.2415 64.0499 43.3104 64.0499 47.4782C64.0499 50.2763 63.9999 51.8769 63.9027 52.2017C63.7066 52.8555 63.115 53.5523 62.4571 53.904L61.9213 54.1904H32.9602H3.99909L3.46334 53.904C2.80542 53.5523 2.21382 52.8555 2.01773 52.2017C1.80784 51.5012 1.80784 18.3227 2.01773 17.6222C2.21382 16.9684 2.80542 16.2716 3.46334 15.9199C3.98902 15.6389 4.10113 15.6329 9.44945 15.596L14.8998 15.5585V16.5309V17.5033L9.90096 17.5038C5.13237 17.5042 4.88263 17.5161 4.47962 17.7617C4.24729 17.9033 4.0005 18.1681 3.93136 18.35C3.85202 18.5585 3.80558 24.7751 3.80558 35.1842V51.6876L4.12228 52.004L4.43886 52.3206L32.7286 52.3201C60.7754 52.3197 61.0219 52.3174 61.4408 52.0622C61.6731 51.9206 61.9205 51.6542 61.9905 51.4701C62.0724 51.2548 62.1057 45.2802 62.084 34.7092L62.0503 18.2828L61.6927 17.9254L61.3351 17.5678L56.1779 17.5313L51.0206 17.4948V16.5266V15.5585L56.471 15.596C61.8193 15.6329 61.9314 15.6389 62.4571 15.9199C63.115 16.2716 63.7066 16.9684 63.9027 17.6222C64.0078 17.9731 64.0499 21.1442 64.0499 28.7135C64.0499 35.3811 64.0967 39.4008 64.1762 39.5492C64.5007 40.1553 65.7607 40.0484 65.9205 39.4012C65.9612 39.2372 65.9777 34.1995 65.9573 28.2064L65.9204 17.3099L65.5773 16.5781C65.1648 15.6988 64.337 14.7699 63.5603 14.3148C62.4932 13.6897 61.9482 13.6389 56.2845 13.6368L51.0346 13.6347L50.9944 8.7023C50.9552 3.89442 50.9465 3.75115 50.6558 3.02876C50.2393 1.99481 49.2713 0.975958 48.2074 0.452409L47.3496 0.0302179L33.221 0.00533003C22.2961 -0.0140129 18.9588 0.0166779 18.5027 0.140602ZM47.0316 2.04717C47.6856 2.24318 48.3827 2.83456 48.7345 3.49221L49.021 4.02776L49.0547 27.207L49.0883 50.3863H32.9602H16.8321L16.8657 27.207L16.8994 4.02776L17.1894 3.48551C17.5151 2.87608 18.1717 2.30017 18.8007 2.07219C19.3934 1.85735 46.3181 1.83349 47.0316 2.04717ZM30.8113 5.95934C29.1842 6.25451 27.7222 6.82513 26.3122 7.71529C25.8506 8.0066 25.4161 8.35129 25.3466 8.48127C25.1379 8.87097 25.2011 9.45113 25.4797 9.70323C25.8737 10.0597 26.3673 9.98628 27.2095 9.4461C28.8989 8.36263 30.477 7.85649 32.5087 7.7465C36.6121 7.52431 40.4923 9.83386 42.3308 13.5928C44.8599 18.7633 42.7158 24.964 37.5172 27.5133C32.3584 30.043 26.1268 27.8905 23.5892 22.7026C22.1847 19.8313 22.1736 16.6356 23.5577 13.6492C23.8334 13.0542 24.059 12.4303 24.059 12.2629C24.059 11.7786 23.6087 11.4211 23.0572 11.4674C22.4799 11.5159 22.0779 12.0445 21.4858 13.5336C20.8147 15.2216 20.6585 16.089 20.6548 18.1481C20.651 20.2072 20.8053 21.0627 21.4885 22.7727C22.6459 25.6699 25.2075 28.2922 28.0692 29.5094C31.7352 31.0689 35.8337 30.7971 39.3109 28.7639C40.7518 27.9213 42.738 25.9393 43.5542 24.5296C44.8546 22.2833 45.2676 20.7451 45.2676 18.1481C45.2676 16.0895 45.1111 15.2234 44.4319 13.5235C43.5199 11.2405 41.5411 8.90088 39.4256 7.60413C36.8941 6.05244 33.6808 5.43889 30.8113 5.95934ZM36.9593 12.2076C36.182 12.3624 35.9248 12.5691 33.4523 15.0251L31.0419 17.4195L30.5033 16.9331C29.8087 16.3059 29.2617 16.0842 28.417 16.0877C27.0581 16.0934 25.8934 17.0118 25.6037 18.3063C25.4697 18.9049 25.4789 19.1173 25.6683 19.7702C25.8703 20.4669 26.0218 20.6659 27.4007 22.0452C29.1013 23.7466 29.6781 24.0891 30.8669 24.1036C32.4318 24.1229 32.3998 24.1457 36.4624 20.0935C40.0759 16.4892 40.1611 16.3921 40.2988 15.7302C40.7367 13.6247 39.0068 11.8 36.9593 12.2076ZM38.2524 14.5062C38.3926 14.6843 38.5073 14.9503 38.5073 15.0972C38.5073 15.2741 37.3869 16.4873 35.1855 18.6939C31.5733 22.3149 31.3537 22.4739 30.4817 22.1005C29.9161 21.8583 27.4131 19.2949 27.4131 18.9579C27.4131 18.4868 27.9014 18.0191 28.3932 18.0191C28.7591 18.0191 28.987 18.1572 29.6706 18.7929C30.4149 19.4849 30.5601 19.5666 31.0471 19.5666C31.583 19.5666 31.6339 19.5245 34.2433 16.9294C35.7016 15.479 37.0377 14.24 37.2125 14.1762C37.6398 14.0201 37.9465 14.1174 38.2524 14.5062ZM14.8998 34.912V50.3863H10.3202H5.74062V34.912V19.4376H10.3202H14.8998V34.912ZM60.1798 34.912V50.3863H55.6002H51.0206V34.912V19.4376H55.6002H60.1798V34.912ZM21.1506 35.2285C20.9765 35.4026 20.8339 35.6953 20.8339 35.8791C20.8339 36.0629 20.9765 36.3556 21.1506 36.5297L21.4672 36.8463H32.9602H44.4532L44.7698 36.5297C44.9439 36.3556 45.0865 36.0629 45.0865 35.8791C45.0865 35.6953 44.9439 35.4026 44.7698 35.2285L44.4532 34.912H32.9602H21.4672L21.1506 35.2285ZM21.1506 41.0314C20.9765 41.2055 20.8339 41.4982 20.8339 41.682C20.8339 41.8657 20.9765 42.1585 21.1506 42.3326L21.4672 42.6491H32.9602H44.4532L44.7698 42.3326C44.9439 42.1585 45.0865 41.8657 45.0865 41.682C45.0865 41.4982 44.9439 41.2055 44.7698 41.0314L44.4532 40.7148H32.9602H21.4672L21.1506 41.0314ZM35.7983 58.1879V60.1867H32.9602H30.1221V58.1879V56.1892H32.9602H35.7983V58.1879ZM40.2178 62.4868C40.6274 62.7414 41.3454 63.6857 41.3454 63.9699C41.3454 64.0169 37.5721 64.0553 32.9602 64.0553C28.3484 64.0553 24.575 64.0169 24.575 63.9699C24.575 63.923 24.7178 63.6411 24.8922 63.3435C25.2207 62.7833 25.665 62.4203 26.241 62.242C26.4244 62.1851 29.5352 62.1491 33.1537 62.162L39.7328 62.1855L40.2178 62.4868Z" fill="#6C2382"/>
</svg>
