<svg width="70" height="63" viewBox="0 0 70 63" fill="none" xmlns="http://www.w3.org/2000/svg">
<path fill-rule="evenodd" clip-rule="evenodd" d="M35.2735 0.0790087C35.2359 0.1416 34.3704 2.02149 33.3502 4.2564C32.3299 6.49132 31.4531 8.36194 31.4019 8.41327C31.3254 8.48998 23.1052 9.24664 22.3479 9.24664C22.1945 9.24664 22.0511 9.48161 21.9128 9.95982C21.786 10.3987 21.9117 10.8717 22.2397 11.1897L22.7109 11.6465C23.2631 12.182 24.7592 13.6075 26.0354 14.8146C27.3116 16.0215 28.3733 17.0482 28.3947 17.096C28.4264 17.1669 26.6048 25.3316 26.3923 26.0709C26.3549 26.2006 26.5674 26.4615 26.9329 26.7346C27.2988 27.0079 27.7916 27.0395 28.1894 26.8152L30.6874 25.4067C32.4215 24.4291 34.2514 23.4042 34.7542 23.1292C35.3196 22.82 36.0072 22.8367 36.5568 23.1731L39.6417 25.061L43.0359 27.1381C43.3878 27.3534 43.8338 27.3394 44.1715 27.1026C44.4775 26.888 44.7301 26.6162 44.7328 26.4986C44.7354 26.381 44.3576 24.3066 43.8931 21.889C43.4285 19.4713 43.0841 17.4348 43.1277 17.3632C43.1714 17.2915 44.7472 15.8824 46.6298 14.2316L49.5044 11.7109C49.8374 11.4189 49.9665 10.9576 49.8332 10.5351C49.5729 9.70973 50.1451 9.85901 44.5979 9.16908C42.3163 8.88535 40.4291 8.61031 40.4042 8.55784C40.3793 8.50538 39.5566 6.56974 38.5761 4.2564L37.0769 0.719719C36.9032 0.309764 36.5119 0.0338288 36.0674 0.00771959C35.6684 -0.0158058 35.311 0.0162743 35.2735 0.0790087ZM37.4958 7.34279C38.735 10.3345 38.8975 10.6496 39.2342 10.7148C39.4385 10.7541 41.0789 10.9637 42.8793 11.1804C44.6799 11.397 46.1354 11.6228 46.1137 11.682C46.0922 11.7412 44.9987 12.7308 43.6838 13.881C42.369 15.0312 41.1523 16.1111 40.9799 16.2809C40.7843 16.4737 40.698 16.7516 40.7501 17.0213L41.3668 20.2133C41.7518 22.2063 42.0509 23.8505 42.0316 23.8669C42.0122 23.8834 40.5864 23.0327 38.8632 21.9763L37.1206 20.908C36.7425 20.6762 36.5534 20.5603 36.3578 20.4905C35.9479 20.3441 35.5013 20.3354 35.086 20.4659C34.8878 20.5281 34.6944 20.6366 34.3076 20.8536L32.5404 21.8448C30.7861 22.8289 29.3277 23.6107 29.2994 23.5822C29.2474 23.5294 30.7963 16.667 30.8978 16.5004C30.9282 16.4507 29.7269 15.2633 28.2284 13.862C26.7299 12.4606 25.5235 11.2925 25.5474 11.266C25.5713 11.2396 27.0357 11.0947 28.8015 10.9439C30.5672 10.7932 32.207 10.6375 32.4455 10.5979C32.8598 10.529 32.9468 10.377 34.4057 7.17569C35.2454 5.33315 35.9765 3.87444 36.0305 3.93404C36.0845 3.99378 36.7439 5.52763 37.4958 7.34279ZM18.0496 7.63707C17.8384 7.67799 17.6564 7.8796 17.5199 8.22364C17.4055 8.51179 16.691 10.095 15.9321 11.7418L15.2279 13.2697C15.044 13.6686 14.9521 13.8681 14.8296 14.0336C14.5728 14.3806 14.2107 14.6352 13.7973 14.7594C13.6001 14.8186 13.3813 14.8376 12.9437 14.8756L12.6649 14.8999C11.6268 14.9901 9.87646 15.1427 8.77523 15.2389L7.58158 15.3433C7.09233 15.3861 6.67749 15.7204 6.5317 16.1893L6.47395 16.3751C6.3636 16.73 6.48395 17.1161 6.77638 17.3455C7.04343 17.555 8.24282 18.651 9.44165 19.781C10.6405 20.911 11.7084 21.9166 11.8147 22.0157C11.9775 22.1674 11.8686 22.8033 11.1232 26.0516L10.3374 29.4762C10.2767 29.7408 10.3698 30.017 10.5783 30.1908C11.4025 30.8779 11.2246 30.9313 14.8338 28.9107C17.6616 27.3277 18.2327 27.0565 18.4892 27.1753C18.6564 27.2527 20.1725 28.1606 21.8581 29.1929L24.2883 30.681C24.6724 30.9162 25.1604 30.8967 25.5245 30.6316C25.8916 30.3643 26.0712 29.909 25.9853 29.463L25.3814 26.3248L24.7831 23.2171C24.6924 22.7459 24.859 22.262 25.2205 21.9465C25.5415 21.6663 25.9014 21.3638 26.0202 21.2741C26.2057 21.1341 26.1414 20.9991 25.5623 20.3117C25.1918 19.872 24.8397 19.5123 24.7798 19.5123C24.7197 19.5123 24.1551 19.9648 23.525 20.5179C22.782 21.1697 22.3792 21.6267 22.3792 21.8173C22.3792 21.979 22.6006 23.297 22.8713 24.7462C23.142 26.1953 23.3635 27.4132 23.3635 27.4524C23.3635 27.5413 22.5074 27.039 20.3617 25.6913C19.3374 25.048 18.5456 24.6451 18.3054 24.6451C18.0742 24.6451 16.9464 25.1926 15.5415 25.9869C14.2363 26.7249 13.1508 27.3113 13.1294 27.29C13.1079 27.2688 13.3453 26.1421 13.6567 24.7864C13.9681 23.4305 14.2229 22.0842 14.2229 21.7948C14.2229 21.2999 14.1007 21.1541 12.1837 19.3598C10.5884 17.8666 10.1982 17.4322 10.3907 17.3635C10.5262 17.3151 11.6811 17.1952 12.9573 17.097C14.2334 16.9988 15.4358 16.8731 15.6292 16.818C16.0125 16.7086 16.3006 16.1969 17.7153 13.1129C18.0244 12.4392 18.9874 12.4561 19.2726 13.1402L19.6859 14.1315L20.2909 15.5827C20.3932 15.828 20.4443 15.9507 20.506 16.0586C20.7777 16.5341 21.2324 16.8773 21.7641 17.0083C21.8849 17.038 22.0169 17.0536 22.2809 17.0847C23.0698 17.1778 23.8196 17.2832 23.9473 17.3188C24.1346 17.3713 24.1973 17.238 24.2711 16.6302C24.3216 16.2157 24.3949 15.7056 24.4341 15.4967C24.5046 15.1223 24.4922 15.1156 23.5479 15.0226C23.0211 14.9707 22.5376 14.9154 22.4735 14.8997C22.4095 14.8839 21.8247 13.5894 21.174 12.0232C19.3034 7.52045 19.3097 7.53228 18.8025 7.55509C18.5654 7.56579 18.2265 7.60271 18.0496 7.63707ZM52.7871 7.7095C52.6955 7.82129 51.9288 9.40661 51.0834 11.2326C50.2378 13.0585 49.4928 14.6059 49.4275 14.6712C49.3623 14.7366 48.9924 14.81 48.6057 14.8343C48.2156 14.8588 47.9174 15.1918 47.9359 15.5822L47.9498 15.8765C47.9759 16.4254 48.0398 16.9203 48.0923 16.9762C48.2582 17.1533 50.676 16.8328 50.9018 16.6037C51.017 16.487 51.6322 15.2602 52.2691 13.8774C52.9062 12.4947 53.4585 11.4164 53.4969 11.4813C53.8378 12.0587 55.426 16.1766 55.426 16.483C55.426 16.7088 55.5948 16.8988 55.8189 16.9256L58.2737 17.2183C59.8398 17.4051 61.2264 17.5966 61.3549 17.6439C61.5293 17.7082 61.0395 18.2125 59.4213 19.6347C58.2294 20.6824 57.2542 21.6371 57.2542 21.7564C57.2542 21.8758 57.4801 23.1541 57.7565 24.5973C58.0326 26.0405 58.2384 27.2765 58.2135 27.3439C58.1886 27.4112 57.1273 26.8317 55.8551 26.0557C54.4716 25.212 53.3917 24.6451 53.1683 24.6451C52.9627 24.6451 52.2634 24.9543 51.6141 25.3323C48.7492 27.0006 47.938 27.4055 48.0227 27.1248C48.2173 26.4801 49.2385 21.9067 49.2385 21.6799C49.2385 21.459 48.271 20.4248 46.8812 19.1601C46.6243 18.9263 46.2291 18.9355 45.9834 19.1809L45.7211 19.4428C45.3353 19.8279 45.0198 20.2056 45.0198 20.282C45.0198 20.3585 45.4466 20.817 45.9681 21.3011C46.0659 21.3918 46.1147 21.4371 46.1577 21.4823C46.5898 21.9366 46.7838 22.5672 46.6819 23.1857C46.6718 23.2473 46.6569 23.3123 46.627 23.4422L46.0364 26.0153L45.3133 29.1648C45.2166 29.5861 45.3597 30.0265 45.6856 30.3104C45.9769 30.5641 46.2673 30.7727 46.331 30.7738C46.3947 30.7749 47.9368 29.935 49.7577 28.9072C52.5383 27.3377 53.1165 27.0609 53.3684 27.1785C53.5334 27.2555 55.0531 28.1633 56.7457 29.1959L59.2495 30.7234C59.5978 30.9359 60.039 30.9217 60.3729 30.6871C60.6753 30.4747 60.9454 30.2634 60.9731 30.2176C61.0008 30.1718 60.6917 28.4124 60.2862 26.3077L59.8482 24.0352C59.7667 23.6119 59.7259 23.4003 59.7282 23.1977C59.7331 22.7733 59.8729 22.3614 60.1274 22.0216C60.2488 21.8595 60.41 21.7164 60.7324 21.4302L62.2628 20.0716C63.7555 18.7463 65.049 17.5256 65.137 17.3588C65.2575 17.1305 65.2556 16.9047 65.1293 16.4475C65.0276 16.0793 64.7151 15.8078 64.3362 15.7587L63.8149 15.6912C63.1842 15.6096 61.4548 15.3976 59.9716 15.2202L58.8873 15.0906C58.4487 15.0381 58.2295 15.0119 58.0334 14.9458C57.6224 14.8072 57.2676 14.5388 57.0225 14.1809C56.9055 14.0103 56.8206 13.8064 56.6509 13.3986L55.8465 11.4663C55.0608 9.57885 54.3372 7.94961 54.2383 7.84552C53.9634 7.55638 52.9873 7.46484 52.7871 7.7095ZM0.582275 35.1246C0.582275 35.7151 1.06103 36.1939 1.65161 36.1939H6.06665H11.551V47.9566V59.7193H6.06665H1.65161C1.06103 59.7193 0.582275 60.1981 0.582275 60.7886C0.582275 61.3792 1.06105 61.8579 1.65161 61.8579L6.38306 61.8574C11.9233 61.857 12.2044 61.8441 12.6421 61.5735C12.8943 61.4177 13.2262 61.0812 13.3799 60.8256C13.6531 60.3713 13.6594 60.0832 13.6594 47.9566C13.6594 35.83 13.6531 35.5419 13.3799 35.0876C13.2262 34.832 12.8943 34.4955 12.6421 34.3397C12.2044 34.0691 11.9233 34.0562 6.38306 34.0558L1.65161 34.0553C1.06105 34.0553 0.582275 34.534 0.582275 35.1246ZM16.1448 36.8593C16.0932 36.9115 16.051 37.4248 16.051 37.9999C16.051 38.5775 16.519 39.0458 17.0965 39.0461L19.4612 39.0476C21.9197 39.049 23.1091 39.1065 23.7235 39.2535C24.1922 39.3656 26.059 40.142 27.872 40.979C29.6849 41.816 31.6112 42.7017 32.1526 42.9474L32.6071 43.1537C32.7551 43.2208 32.8291 43.2544 32.9048 43.2817C33.0629 43.3386 33.2276 43.3753 33.3949 43.3911C33.475 43.3986 33.5563 43.3997 33.7188 43.4019L38.4807 43.4654C43.6656 43.5345 43.8391 43.5459 44.3167 43.8476C44.9794 44.2664 45.301 44.8635 45.301 45.6754C45.301 46.4872 44.9794 47.0843 44.3167 47.5031C43.8337 47.8082 43.711 47.8147 37.8127 47.8554L32.8701 47.8895C32.2785 47.8936 31.801 48.3743 31.801 48.9659C31.801 49.5552 32.2809 50.0318 32.8702 50.0278L38.094 49.9923L43.8192 49.9534C43.9778 49.9523 44.0571 49.9518 44.1354 49.9451C44.2989 49.9311 44.46 49.8971 44.6152 49.8437C44.6895 49.8181 44.7623 49.7865 44.9078 49.7234L52.7542 46.3154L60.5887 42.9126C60.7374 42.8479 60.8118 42.8156 60.8879 42.7896C61.0466 42.7354 61.2115 42.7013 61.3787 42.6882C61.4588 42.6819 61.5399 42.6821 61.7021 42.6824L62.5276 42.6842C63.7304 42.6869 64.0357 42.7378 64.637 43.0361C65.4055 43.4173 66.7289 44.6591 66.6435 44.9187C66.5727 45.1343 40.1779 59.3549 38.8662 59.8841C37.4831 60.4423 35.9166 60.6461 34.5886 60.4406C34.0222 60.3531 32.0084 59.775 30.1135 59.1563C28.2186 58.5375 25.167 57.5414 23.3324 56.9427L20.3582 55.9724C20.2569 55.9394 20.2063 55.9229 20.1551 55.9091C20.0482 55.8804 19.9391 55.8606 19.8289 55.85C19.7761 55.8449 19.7229 55.8426 19.6165 55.8379L18.0239 55.7689L17.2124 55.7337C16.5793 55.7062 16.051 56.2121 16.051 56.8458C16.051 57.4879 16.5715 58.0084 17.2136 58.0084H17.7513H19.0104C19.1339 58.0084 19.1956 58.0084 19.2569 58.0121C19.3849 58.02 19.5117 58.0401 19.6358 58.0723C19.6953 58.0877 19.754 58.1068 19.8715 58.1451L26.026 60.15C29.6419 61.3279 33.069 62.3925 33.6421 62.5157C34.8937 62.7849 37.2057 62.7161 38.4807 62.3717C39.6608 62.053 40.9765 61.3706 56.0588 53.2551C68.3547 46.6389 69.4154 46.0396 69.3824 45.7284C69.3627 45.5423 69.1185 44.9181 68.8398 44.3411C67.4182 41.3979 64.0954 39.7886 60.9807 40.5351C60.5167 40.6463 57.3595 41.9285 53.9649 43.3846C50.5702 44.8406 47.7471 46.0318 47.6912 46.0318C47.6354 46.0318 47.5484 45.6746 47.4977 45.2382C47.327 43.7647 46.3592 42.3832 45.0338 41.7212C44.4047 41.4068 44.2403 41.396 39.0432 41.3267L34.2936 41.2634C34.1277 41.2611 34.0447 41.26 33.9629 41.2522C33.7922 41.2359 33.6243 41.1976 33.4634 41.1384C33.3862 41.1101 33.311 41.0752 33.1605 41.0053L29.762 39.4283C25.1715 37.2983 24.5541 37.0689 22.9461 36.8974C21.5521 36.7485 16.2831 36.719 16.1448 36.8593ZM6.36337 54.9281C5.9159 55.1795 5.65588 55.6845 5.6497 56.3138C5.63971 57.3554 6.70256 58.0768 7.65346 57.674C8.29331 57.403 8.5986 56.9346 8.59481 56.23C8.58834 55.0591 7.38248 54.3554 6.36337 54.9281Z" fill="#6C2382"/>
</svg>
