<svg width="73" height="72" viewBox="0 0 73 72" fill="none" xmlns="http://www.w3.org/2000/svg">
<path fill-rule="evenodd" clip-rule="evenodd" d="M36.0159 0.250117C35.8047 0.397973 35.1495 1.57115 34.3545 3.22509C33.6326 4.72685 33.0109 5.95566 32.9733 5.95566C32.8608 5.95566 27.7862 6.68617 27.253 6.77899C26.6251 6.88847 26.1837 7.3298 26.1797 7.85221C26.1772 8.18704 26.5968 8.66601 28.4928 10.4925L30.8088 12.7239L30.2699 15.8385C29.6872 19.2069 29.6988 19.5141 30.4194 19.7881C30.8939 19.9685 30.83 19.9944 33.9646 18.3458L36.6142 16.9523L39.2456 18.3466C42.3503 19.9913 42.2963 19.9693 42.7727 19.7881C43.4932 19.5142 43.5047 19.2071 42.9196 15.8445L42.3785 12.7347L44.6976 10.498C46.5968 8.66616 47.0158 8.18719 47.0129 7.85221C47.0083 7.32965 46.5669 6.88847 45.9391 6.77899C45.3982 6.68483 40.3305 5.95566 40.2162 5.95566C40.1769 5.95566 39.5519 4.72447 38.8272 3.21958C37.2869 0.0211933 36.9104 -0.376411 36.0159 0.250117ZM37.628 5.44992C38.1566 6.56642 38.7285 7.56646 38.9047 7.68189C39.0802 7.79687 40.2432 8.03621 41.4891 8.21367L43.7543 8.5366L42.0346 10.2604C40.6065 11.6923 40.3154 12.0597 40.3169 12.4285C40.3178 12.6727 40.4743 13.7901 40.6647 14.9115L41.011 16.9507L38.8089 15.804L36.6068 14.6575L34.3932 15.8088L32.1797 16.9601L32.5266 14.9163C32.7174 13.7922 32.8744 12.6727 32.8753 12.4285C32.8768 12.0597 32.5856 11.6923 31.1575 10.2604L29.4379 8.5366L31.703 8.21367C32.9489 8.03621 34.1119 7.79687 34.2875 7.68189C34.4636 7.56646 35.0356 6.56642 35.5641 5.44992C36.0907 4.33728 36.5552 3.42694 36.5961 3.42694C36.637 3.42694 37.1014 4.33728 37.628 5.44992ZM10.3024 9.41407C10.1304 9.59807 9.41473 10.9201 8.71199 12.3518L7.43414 14.9549L4.28146 15.4235C1.52314 15.8333 1.09546 15.9331 0.86235 16.2208C0.71597 16.4018 0.596069 16.6882 0.596069 16.8574C0.596069 17.0556 1.42065 17.9955 2.90989 19.4952L5.22385 21.8253L4.6849 24.923C4.14936 28.0012 4.14772 28.0232 4.43111 28.4046C4.93139 29.0779 5.2902 28.988 8.28966 27.4381L11.0837 25.9942L13.7753 27.4286C15.2558 28.2175 16.6449 28.8629 16.8621 28.8629C17.3118 28.8629 17.8527 28.3953 17.8514 28.0076C17.8509 27.8644 17.6147 26.4086 17.3264 24.7724L16.8023 21.7974L19.1124 19.5343C21.5567 17.1399 21.7052 16.8989 21.1549 16.2193C20.9205 15.9298 20.4999 15.8315 17.7496 15.4232L14.6118 14.9573L13.2196 12.1542C12.4539 10.6124 11.7147 9.28986 11.577 9.21519C11.1494 8.98344 10.6285 9.06481 10.3024 9.41407ZM61.5878 9.22069C61.4651 9.29343 60.7356 10.6194 59.9665 12.1671L58.5684 14.9813L55.5037 15.4125C52.8771 15.7821 52.3911 15.8909 52.1043 16.1735C51.447 16.8211 51.5993 17.0792 54.0788 19.5223L56.388 21.7974L55.8648 24.7724C55.5771 26.4086 55.3412 27.8644 55.3408 28.0076C55.3394 28.3918 55.8788 28.8629 56.3201 28.8629C56.5317 28.8629 57.9209 28.2257 59.4068 27.4468C60.8926 26.668 62.1754 26.0488 62.2572 26.0709C62.339 26.0929 63.5961 26.7345 65.0507 27.4965C67.8955 28.9867 68.2618 29.0764 68.761 28.4046C69.0444 28.0232 69.0428 28.0012 68.5072 24.923L67.9683 21.8253L70.2823 19.4952C71.7715 17.9955 72.5961 17.0556 72.5961 16.8574C72.5961 16.6882 72.4723 16.3969 72.321 16.2101C72.0766 15.9083 71.6977 15.8196 68.911 15.4128L65.7762 14.9549L64.4419 12.2671C63.7081 10.7888 62.9952 9.46672 62.8578 9.32928C62.5891 9.06064 61.95 9.0059 61.5878 9.22069ZM12.1223 14.5776C12.9131 16.1723 13.2403 16.6883 13.5312 16.8002C13.7396 16.8803 14.6465 17.0514 15.5465 17.1804C16.4465 17.3093 17.4171 17.4533 17.7035 17.5003L18.2242 17.5857L16.4762 19.2484C15.0045 20.6483 14.7286 20.9812 14.7301 21.3543C14.731 21.5981 14.8879 22.7178 15.0789 23.8427C15.2699 24.9675 15.3919 25.888 15.3501 25.888C15.3082 25.888 14.3832 25.4194 13.2945 24.8467C12.2058 24.274 11.1902 23.8055 11.0376 23.8055C10.8849 23.8055 9.86339 24.274 8.76733 24.8467C7.67126 25.4194 6.7363 25.888 6.68959 25.888C6.64273 25.888 6.75564 25.0344 6.9404 23.9914C7.4923 20.876 7.57888 21.1771 5.57582 19.2493L3.85571 17.5936L4.34572 17.51C4.61528 17.464 5.60557 17.3129 6.54648 17.174C7.48739 17.035 8.39736 16.8695 8.56873 16.806C8.77982 16.7277 9.2087 16.0148 9.89805 14.5956C10.4578 13.4434 10.9554 12.5006 11.0039 12.5006C11.0524 12.5006 11.5557 13.4352 12.1223 14.5776ZM63.2948 14.5972C63.9709 15.9888 64.4178 16.7353 64.6242 16.8173C64.7951 16.8853 65.7048 17.0493 66.6457 17.1819C67.5866 17.3144 68.58 17.4618 68.8533 17.5094L69.3503 17.5963L67.626 19.2255C65.6314 21.1105 65.7147 20.8518 66.1994 23.6567C66.362 24.5976 66.4954 25.4896 66.4959 25.6391C66.4967 25.864 66.1466 25.7291 64.4694 24.8582C63.3542 24.2792 62.3196 23.8055 62.1701 23.8055C62.0205 23.8055 61.0026 24.274 59.908 24.8467C58.8134 25.4194 57.8837 25.888 57.8419 25.888C57.8001 25.888 57.9222 24.9677 58.1132 23.8427C58.6296 20.8015 58.7387 21.1642 56.7287 19.2513L54.9912 17.5975L55.9465 17.438C56.4719 17.3502 57.4374 17.2043 58.0919 17.1136C59.9839 16.8513 59.9116 16.9129 61.0698 14.5776C61.6365 13.4352 62.1397 12.5006 62.1882 12.5006C62.2367 12.5006 62.7347 13.4441 63.2948 14.5972ZM34.7757 25.8826C31.4073 26.4986 28.5046 28.6145 27.0053 31.5468C26.1223 33.2738 25.8199 34.5203 25.8159 36.4491C25.8115 38.5477 26.0005 39.36 26.954 41.3434C27.5788 42.643 27.8805 43.0729 28.8372 44.0268C30.5576 45.7425 32.1328 46.6036 34.4123 47.0744C40.7605 48.3856 46.8646 43.7024 47.2597 37.2177C47.5801 31.9588 44.2726 27.455 39.0506 26.0401C38.2402 25.8204 35.6397 25.7246 34.7757 25.8826ZM38.492 28.0451C40.6794 28.5608 42.8871 30.1835 44.0301 32.1155C45.6623 34.8748 45.6086 38.5352 43.8972 41.1679C42.2891 43.6415 39.9226 45.0268 37.0424 45.1802C34.3345 45.3243 32.3466 44.5589 30.4161 42.6286C28.6417 40.8543 27.8237 38.9277 27.8237 36.5235C27.8237 32.6008 30.6727 28.976 34.4819 28.0524C35.612 27.7786 37.3476 27.7753 38.492 28.0451ZM25.8109 51.3312C24.4635 51.5097 22.7295 52.1135 21.5299 52.8219C20.1636 53.6285 18.3759 55.4116 17.5882 56.7533C16.1741 59.1618 15.877 61.0717 15.9466 67.3064L15.9928 71.4316L16.344 71.7159C16.6857 71.9924 17.2285 72 36.6017 72H56.5084L56.8166 71.608C57.1132 71.2311 57.125 71.0435 57.125 66.7102C57.125 62.1293 56.9771 60.1421 56.5918 59.5447C56.2753 59.0541 55.6938 58.9583 55.2154 59.318C54.8876 59.5643 54.8264 59.7155 54.8607 60.1926C54.8836 60.5099 54.9396 62.8277 54.9852 65.3435L55.0682 69.9175H51.3363H47.6043V67.4089C47.6043 65.0961 47.5802 64.8696 47.296 64.5083C46.9049 64.011 46.2866 63.9906 45.8451 64.4605C45.5389 64.7864 45.5217 64.9413 45.5217 67.3611V69.9175H36.5217H27.5217V67.3144C27.5217 64.9096 27.4991 64.6887 27.2242 64.4138C26.796 63.9857 26.1245 64.0287 25.7474 64.5083C25.4631 64.8696 25.439 65.0961 25.439 67.4089V69.9175H21.7055H17.972L18.0358 65.4179C18.0947 61.2602 18.1251 60.8391 18.4342 59.877C19.3222 57.1135 21.5415 54.7654 24.1236 53.858C25.6974 53.305 26.6287 53.2599 36.5358 53.2589C45.5696 53.2578 46.235 53.2403 46.4522 52.9974C46.923 52.4708 46.7869 51.6225 46.1877 51.3494C45.7433 51.1471 27.3253 51.1306 25.8109 51.3312ZM50.796 53.3254C50.1269 53.9943 50.3037 54.3614 51.9056 55.6274C52.9471 56.4504 53.3283 56.54 53.8242 56.0781C54.3424 55.5953 54.245 55.0468 53.5176 54.3523C52.0062 52.9093 51.4296 52.6917 50.796 53.3254Z" fill="#6C2382"/>
</svg>
