<svg width="73" height="72" viewBox="0 0 73 72" fill="none" xmlns="http://www.w3.org/2000/svg">
<path fill-rule="evenodd" clip-rule="evenodd" d="M25.0544 0.199687C20.7642 1.23975 19.0369 5.50856 20.7835 10.7544L21.0878 11.6682L20.7871 12.0902C20.3173 12.7498 19.5769 14.4503 19.2527 15.6146C18.783 17.3014 18.5351 19.3212 18.5343 21.4677L18.5334 23.4588L17.066 23.5067C15.4166 23.5606 15.0062 23.7427 14.5591 24.6194C14.3477 25.0334 14.313 25.5222 14.3128 28.0776L14.3126 31.0537L12.348 32.8264C11.2675 33.8012 10.2263 34.8048 10.0343 35.0564C8.90588 36.5351 9.52818 38.8349 11.2876 39.6883C11.5197 39.8008 12.8911 40.1993 14.3349 40.5737L16.9602 41.2543L16.8841 42.2602C16.8364 42.8915 16.8737 43.4649 16.9842 43.7999C17.2005 44.4549 17.9691 45.3289 18.535 45.5631L18.9555 45.7373L18.9617 49.9037C18.9664 53.0412 19.0151 54.2024 19.1587 54.605C19.6389 55.9506 20.6947 56.881 22.3059 57.3784C23.8312 57.8492 26.8819 57.7368 30.0642 57.0925C30.7958 56.9444 31.4048 56.8365 31.4173 56.853C31.43 56.8695 31.4729 57.3076 31.5127 57.8268L31.585 58.771L30.7926 58.9996C29.5564 59.3564 26.989 60.4406 26.0935 60.984C25.011 61.6409 24.7991 62.0622 24.8366 63.483C24.9001 65.8935 25.8596 71.0453 26.3449 71.5812C26.7218 71.9976 27.4892 71.9117 27.8613 71.4113L28.1423 71.0335L27.7038 68.8098C27.2645 66.5834 27.0259 64.951 26.9469 63.6328L26.9049 62.9297L28.1008 62.3334C29.2086 61.7811 31.2027 61.0312 31.5636 61.0312C31.6596 61.0312 31.7486 61.5016 31.7958 62.2572C31.8647 63.3617 31.9093 63.515 32.2456 63.8041C32.7473 64.2355 33.1044 64.2081 33.6137 63.699C33.9666 63.3464 34.0259 63.1952 33.9594 62.8201C33.7903 61.8691 33.55 56.3729 33.6727 56.2673C33.7422 56.2075 34.4638 55.9187 35.2763 55.6253C39.1678 54.2206 43.2981 51.8203 45.6527 49.5948C46.5367 48.7593 46.6488 48.176 46.0206 47.6821C45.4689 47.2483 45.0737 47.3196 44.3197 47.989C42.4862 49.6166 40.671 50.8195 38.1474 52.0791C34.0214 54.1385 29.6469 55.3296 25.566 55.5045C23.2464 55.604 22.3854 55.413 21.6267 54.6308L21.1363 54.1254L21.0951 49.9846L21.054 45.8438H21.7806C23.8215 45.8438 27.2006 45.0591 28.8181 44.2095C30.3743 43.3922 30.796 42.6963 30.1734 41.9729C29.732 41.46 29.1507 41.4539 28.4931 41.9552C27.3313 42.8408 24.7818 43.5105 21.755 43.725C18.9648 43.9228 18.8196 43.8152 19.0784 41.743C19.2344 40.4934 19.2288 40.2975 19.027 39.9898C18.729 39.5353 18.6808 39.5179 15.1567 38.5944C13.493 38.1585 12.0461 37.7312 11.9413 37.6449C11.6655 37.4181 11.505 36.9202 11.5956 36.5737C11.6592 36.3309 18.2445 30.2344 18.4433 30.2344C18.4748 30.2344 18.5464 30.6615 18.6022 31.1836C18.9481 34.4147 20.3078 36.8567 22.1433 37.5431C23.0404 37.8786 23.5971 37.8997 24.4867 37.6321C26.4093 37.0538 27.8273 34.7025 28.2269 31.4297C28.3118 30.7336 28.3816 29.8952 28.3818 29.5664L28.3822 28.9688H36.9585H45.5346L45.3133 29.5664C45.1863 29.9093 45.054 30.8836 45.0029 31.8516L44.914 33.5391L43.9096 33.5801L42.9053 33.621L42.8508 32.5453C42.8044 31.624 42.7494 31.4312 42.4679 31.2034C42.0214 30.8422 41.4418 30.8668 41.0694 31.2629C40.7898 31.5603 40.7635 31.7362 40.7635 33.302C40.7635 35.7502 40.8088 35.7808 44.3358 35.6971C47.1203 35.631 46.9998 35.7604 47.099 32.7271C47.1614 30.8225 47.222 30.3396 47.4657 29.8053C48.132 28.3448 49.4426 27.4258 50.8629 27.4233C51.7858 27.4216 52.3818 27.6636 53.1401 28.3485C54.322 29.4157 54.7521 30.8396 54.5381 32.9766C54.3072 35.2818 53.5099 37.2968 52.3248 38.5696C50.9505 40.0456 49.6573 40.1705 48.1658 38.9711C47.865 38.7292 47.4664 38.5312 47.2801 38.5312C46.8376 38.5312 46.2506 39.1262 46.2506 39.5747C46.2506 40.0808 46.9465 40.8025 47.9692 41.3567C48.7801 41.7961 48.9528 41.8357 50.0494 41.8331C50.996 41.8309 51.3984 41.7617 51.9799 41.5011L52.7145 41.172L54.7235 42.4059C55.8284 43.0844 56.8952 43.752 57.0938 43.8893L57.4551 44.139L57.2002 45.3781C56.6712 47.9488 56.477 49.9425 56.4743 52.8328L56.4718 55.6734L55.7579 55.7478C55.3654 55.7889 54.3477 55.8939 53.4965 55.9813C50.8731 56.2508 49.883 56.4621 49.5988 56.8128C49.2438 57.251 49.2842 57.7479 49.7095 58.173C50.0297 58.4931 50.1513 58.5263 50.7296 58.4522C51.0906 58.4058 52.1412 58.2713 53.064 58.1534C55.1775 57.8831 59.6439 57.6221 59.7635 57.762C59.8129 57.8198 60.1894 59.1328 60.6001 60.6797C61.0107 62.2266 61.3716 63.5604 61.4019 63.6438C61.4375 63.7411 60.8636 63.8533 59.7945 63.9579C54.3773 64.4877 48.9883 66.133 43.6618 68.8832C41.6167 69.939 41.0449 70.388 41.0449 70.9379C41.0449 71.37 41.6127 72 42.0023 72C42.1491 72 43.1885 71.5248 44.3121 70.9442C49.8231 68.0963 55.5642 66.3566 60.5948 66.0102L61.9863 65.9145L62.1873 66.6018C62.2979 66.9798 62.6326 68.2066 62.931 69.3281C63.5104 71.5054 63.7955 72 64.4708 72C64.8776 72 65.526 71.4344 65.526 71.0798C65.526 70.6887 61.749 56.844 61.5567 56.53C61.2375 56.0087 60.4964 55.658 59.5546 55.5825L58.6658 55.5112L58.5716 54.0173C58.3193 50.0213 59.1169 45.3336 61.2182 38.4609C64.0732 29.1234 64.9907 24.4498 65.3941 17.188C65.6247 13.038 65.6189 12.9967 64.5604 11.2479C63.3046 9.17297 61.9508 7.44145 60.3659 5.88305C58.7197 4.26431 57.213 3.16322 55.3959 2.25098C52.3372 0.715219 49.7256 0.153281 45.1251 0.0409219C42.1689 -0.0312188 42.0912 -0.025875 41.7132 0.275063C41.1968 0.685828 41.1771 1.4092 41.6717 1.79803C41.9802 2.04061 42.3379 2.07816 45.0132 2.14931C48.9936 2.2552 51.0634 2.64262 53.6862 3.77269C57.0923 5.24053 60.2461 8.21053 62.7155 12.2757L63.4667 13.5124L63.3033 16.7092C63.0442 21.783 62.3128 26.6714 61.1539 31.0781C60.7481 32.6208 58.0652 41.788 57.9924 41.88C57.9515 41.9317 54.7002 39.9653 54.4539 39.7399C54.3258 39.6226 54.4186 39.3851 54.8435 38.7422C55.9988 36.9948 56.672 34.5527 56.6836 32.0684C56.6911 30.447 56.4317 29.3494 55.7775 28.2336C55.2686 27.3656 53.9801 26.2025 53.0397 25.7619C52.3386 25.4336 52.0513 25.3828 50.8936 25.3828C49.3631 25.3828 48.5762 25.6199 47.5771 26.3822L46.9517 26.8594H44.9303H42.9091L42.8212 26.4199C42.7728 26.1782 42.7332 25.7642 42.7332 25.5C42.7332 24.597 42.2966 22.8527 41.8121 21.8192C41.2697 20.6627 39.9677 19.2019 38.7038 18.3319L37.9495 17.8127V14.9019C37.9495 12.2022 37.9699 11.9651 38.2315 11.6328C38.9212 10.7564 40.5607 10.4347 41.678 10.9565C41.9875 11.1011 43.1268 11.9616 44.2094 12.8686C46.5377 14.8189 47.0516 15.1791 48.0797 15.5811C49.3475 16.0768 50.1727 16.2148 51.8785 16.2162C53.6777 16.2177 54.9413 15.9732 56.1931 15.3813C57.8191 14.6125 58.3113 13.7959 57.6119 13.0271C57.173 12.5449 52.0341 8.85938 51.8003 8.85938C51.0668 8.85938 50.4411 9.70833 50.7215 10.3233C50.8033 10.5027 51.7624 11.296 52.853 12.0862C53.9433 12.8763 54.8036 13.5747 54.7645 13.638C54.6765 13.78 53.6152 14.0241 52.5799 14.1403C52.1531 14.1881 51.3206 14.1601 50.73 14.078C48.8276 13.8136 48.2859 13.5219 45.7112 11.3761C42.7311 8.89228 42.2658 8.64984 40.4791 8.649C39.2507 8.64844 39.0623 8.68641 38.208 9.10688C37.6956 9.35902 37.047 9.819 36.7667 10.1291L36.2571 10.6928L33.1346 10.655L30.0122 10.6172L29.6714 9.5625C29.4029 8.73127 29.3271 8.18002 29.3137 6.96094C29.2984 5.57114 29.3336 5.33545 29.6601 4.63978C30.1212 3.65752 30.7753 3.00375 31.7581 2.54292C32.4981 2.19586 32.6702 2.17659 35.6057 2.10938C38.6257 2.04033 38.6833 2.0333 38.9472 1.70705C39.3126 1.2555 39.2846 0.759094 38.8704 0.345234L38.5251 0L32.1522 0.0119531C27.5718 0.0205313 25.5754 0.0734062 25.0544 0.199687ZM6.82526 1.48416C6.2847 1.77736 5.85066 2.61436 5.17517 4.66537C4.85227 5.64567 4.50489 6.51684 4.40331 6.60122C4.30159 6.68559 3.5929 7.0612 2.82864 7.43597C0.892938 8.38505 0.399938 8.92631 0.582984 9.90169C0.701731 10.5339 1.24046 10.9969 2.63476 11.6646C3.29251 11.9796 3.98361 12.3157 4.1706 12.4116C4.43961 12.5497 4.63307 12.9524 5.09835 14.3438C6.05734 17.2118 6.49772 17.8594 7.48878 17.8594C7.9407 17.8594 8.14921 17.7737 8.43018 17.4727C8.94147 16.9248 9.08259 16.6192 9.80858 14.4896L10.4541 12.5965L12.1356 11.7474C13.3945 11.1119 13.8971 10.7783 14.1351 10.4206C14.8779 9.30473 14.3047 8.47097 12.0614 7.40433C11.2489 7.01803 10.5377 6.6337 10.4808 6.55017C10.424 6.46678 10.1467 5.70234 9.86472 4.85156C9.14211 2.67244 8.73437 1.85428 8.21168 1.53577C7.68773 1.21641 7.34246 1.20361 6.82526 1.48416ZM28.5707 2.28516C27.3337 4.27275 27.0284 5.37553 27.1624 7.37227C27.2093 8.07413 27.3657 9.1087 27.5096 9.6712L27.7711 10.694L25.3742 10.6556L22.9772 10.6172L22.6518 9.57825C22.2039 8.14823 22.0872 6.33727 22.3783 5.33644C23.0183 3.13566 24.565 2.12302 27.3001 2.11402C28.3695 2.11036 28.6556 2.14889 28.5707 2.28516ZM7.99065 5.91412C8.62631 7.90594 8.78544 8.10183 10.4296 8.91858L11.8228 9.61045L10.6438 10.1547C8.86733 10.9745 8.68344 11.199 7.91706 13.4837L7.47443 14.8036L7.29167 14.187C6.87633 12.7851 6.26866 11.4202 5.90525 11.072C5.69209 10.8679 4.98368 10.4545 4.33099 10.1533L3.14422 9.60567L4.49603 8.96555C6.09603 8.208 6.31777 7.93336 6.99283 5.87109C7.23961 5.11706 7.4636 4.5 7.49047 4.5C7.51734 4.5 7.74232 5.13633 7.99065 5.91412ZM35.8069 15.8095C35.8332 17.8405 35.8972 18.8146 36.0138 18.955C36.1067 19.0668 36.6315 19.4611 37.1802 19.8311C38.3661 20.631 39.4791 21.8062 39.9017 22.7049C40.2665 23.4806 40.568 24.7733 40.6657 25.9805L40.7367 26.8594H34.5754H28.414L28.3586 25.8795C28.2962 24.778 28.0375 24.3042 27.2418 23.8359C26.8112 23.5824 26.4631 23.5503 23.704 23.5097L20.6439 23.4647L20.6445 21.4706C20.6447 20.352 20.7398 18.8917 20.8611 18.1444C21.1988 16.0635 21.9857 13.9153 22.7303 13.0416C22.9267 12.8109 23.38 12.7966 29.355 12.8306L35.7688 12.8672L35.8069 15.8095ZM2.42371 19.6705C0.837503 20.3978 0.119248 22.1771 0.795435 23.7047C1.37933 25.0241 2.30215 25.6416 3.68998 25.6416C5.05234 25.6416 5.98896 25.0298 6.56244 23.7656C7.72107 21.2113 4.9796 18.4987 2.42371 19.6705ZM4.45354 21.8862C5.04559 22.6384 4.62913 23.5406 3.68998 23.5406C2.75083 23.5406 2.33437 22.6384 2.92642 21.8862C3.13789 21.6174 3.34767 21.5156 3.68998 21.5156C4.0323 21.5156 4.24207 21.6174 4.45354 21.8862ZM18.5334 26.4083C18.5334 27.2897 18.5792 27.2249 16.8803 28.7512L16.423 29.162V27.3779V25.5938H17.4782H18.5334V26.4083ZM26.1879 28.5469C26.1778 30.6935 26.1157 31.6707 25.9449 32.3734C24.9032 36.6597 22.1754 36.8326 20.9909 32.6877C20.8112 32.0587 20.7348 31.0757 20.6826 28.7196L20.6132 25.5877L23.4073 25.6258L26.2014 25.6641L26.1879 28.5469ZM8.32663 30.7202C8.10883 30.9378 7.98122 31.2261 7.98122 31.5C7.98122 32.0421 8.53022 32.625 9.0408 32.625C9.45544 32.625 10.2324 31.9383 10.2324 31.5719C10.2324 31.2692 9.96222 30.7704 9.68182 30.5553C9.31193 30.2715 8.70116 30.3458 8.32663 30.7202ZM66.4195 46.0091C66.032 46.1966 65.519 47.1607 65.0487 48.5859C64.8445 49.2047 64.6309 49.7786 64.5741 49.8611C64.5172 49.9437 64.0276 50.2163 63.4859 50.4668C62.1223 51.0976 61.5865 51.6381 61.5865 52.3828C61.5865 53.1315 62.1309 53.6782 63.4859 54.2907C64.0276 54.5355 64.5172 54.8076 64.5741 54.8952C64.6309 54.983 64.8455 55.5609 65.0509 56.1797C65.7171 58.1872 66.2557 58.9219 67.0613 58.9219C67.8686 58.9219 68.3872 58.1808 69.1077 55.998L69.4925 54.8318L70.6398 54.268C72.0504 53.5749 72.4186 53.2271 72.5168 52.4945C72.5815 52.0127 72.5338 51.8666 72.1898 51.4918C71.9682 51.2505 71.2729 50.8023 70.6447 50.4959L69.5023 49.9386L68.9627 48.3628C68.1938 46.1177 67.5076 45.4828 66.4195 46.0091ZM67.7385 51.041C67.9087 51.3727 68.2332 51.6548 68.7584 51.928C69.182 52.1484 69.5529 52.353 69.5826 52.3827C69.6123 52.4123 69.4045 52.5336 69.1208 52.6521C68.1396 53.0618 67.8181 53.3966 67.4121 54.431L67.0229 55.4226L66.7115 54.5631C66.3301 53.5103 66.0876 53.2319 65.1298 52.7475L64.382 52.3692L65.1075 52.0296C66.0124 51.606 66.4296 51.1183 66.7463 50.1145L66.9936 49.3298L67.2411 49.9423C67.3773 50.2791 67.601 50.7735 67.7385 51.041ZM14.09 54.6957C13.5404 54.9236 13.1078 55.6355 12.5773 57.1842L12.0473 58.7318L10.9275 59.2775C9.50257 59.9719 9.04277 60.434 9.04277 61.1719C9.04277 61.9097 9.50257 62.3718 10.9275 63.0662L12.0473 63.612L12.5793 65.1693C13.225 67.059 13.6939 67.6688 14.5019 67.6688C15.3996 67.6688 15.7436 67.2022 16.4924 64.9689L16.9403 63.6328L18.1834 63C19.5268 62.3161 19.9873 61.8494 19.9873 61.1719C19.9873 60.5105 19.5379 60.0327 18.3137 59.3927C17.6994 59.0716 17.1241 58.7427 17.035 58.662C16.9461 58.5813 16.6999 57.9897 16.488 57.3474C15.8452 55.3989 15.4591 54.8049 14.7346 54.6497C14.5412 54.6082 14.2511 54.6289 14.09 54.6957ZM44.0698 57.8649C41.313 58.7146 38.7147 59.8669 38.122 60.5025C37.946 60.6912 37.7436 61.0495 37.6721 61.2989C37.5498 61.725 37.6497 64.0813 37.8878 66.3854L37.9833 67.31L36.4127 68.1784C35.5488 68.6561 34.7878 69.0469 34.7217 69.0469C34.6556 69.0469 34.556 68.5882 34.5004 68.0273C34.4448 67.4665 34.3141 66.8415 34.21 66.6381C33.7035 65.6499 32.3217 66.0857 32.3217 67.2337C32.3217 68.4028 32.7624 71.0968 33.0093 71.4375C33.4973 72.111 33.8822 72.0035 36.8416 70.368C38.3408 69.5395 39.7168 68.7292 39.8993 68.5675C40.2626 68.2455 40.2608 68.4378 39.932 65.3203C39.8585 64.6242 39.7628 63.5604 39.7192 62.9564L39.64 61.858L40.6591 61.3952C41.8927 60.8349 43.6434 60.1941 45.2984 59.6971C46.5806 59.3121 46.9541 59.0178 46.9541 58.392C46.9541 57.9698 46.3556 57.3732 45.9404 57.3815C45.7628 57.385 44.9211 57.6025 44.0698 57.8649ZM15.1082 59.574C15.3889 60.1791 15.5684 60.3617 16.2142 60.699C16.6383 60.9204 16.9851 61.1332 16.9851 61.1719C16.9851 61.2105 16.6277 61.4288 16.191 61.6569C15.3818 62.0796 15.2942 62.2025 14.6415 63.8324C14.5149 64.1485 14.4828 64.1123 14.1865 63.3203C13.8322 62.3737 13.4186 61.9166 12.4981 61.4552L11.8796 61.1452L12.4981 60.869C13.3852 60.4728 13.8234 59.994 14.1865 59.0234C14.482 58.2337 14.5152 58.1961 14.6393 58.5114C14.7128 58.6986 14.9239 59.1767 15.1082 59.574Z" fill="#6C2382"/>
</svg>
