<svg width="74" height="74" viewBox="0 0 74 74" fill="none" xmlns="http://www.w3.org/2000/svg">
<path fill-rule="evenodd" clip-rule="evenodd" d="M48.2238 0.140231C46.5077 0.632644 45.1459 1.73779 44.3943 3.24843L43.9163 4.2094L43.8688 7.06944L43.8214 9.92934H31.5172C19.7363 9.92934 19.1649 9.94148 18.0835 10.2154C15.9944 10.7445 15.9658 10.7682 8.77795 17.8742C2.3812 24.1982 2.09267 24.5068 1.60074 25.5477C1.31892 26.1442 1.01623 26.9772 0.928179 27.3986C0.672356 28.6225 0.709006 68.0499 0.966728 69.0044C1.61271 71.3956 3.40201 73.1506 5.8338 73.7778C6.79839 74.0267 11.7096 74.0863 12.147 73.8545C12.2913 73.778 12.4893 73.5243 12.587 73.2909C12.7339 72.9395 12.7242 72.7894 12.5313 72.4198C12.403 72.1742 12.1514 71.9411 11.9722 71.9018C11.7929 71.8624 10.4307 71.8127 8.945 71.7913C6.41524 71.7545 6.19738 71.7295 5.51591 71.3973C4.51715 70.9107 3.62352 69.9593 3.25921 68.9947C2.96075 68.2048 2.95827 68.0349 2.95827 48.848V29.4979L3.29805 28.8604C3.48481 28.5099 3.91746 28.0279 4.25928 27.7892L4.88088 27.3554L8.99362 27.2761C12.7793 27.2033 13.1702 27.1717 13.9062 26.8799C15.0585 26.4232 16.1429 25.6358 16.8031 24.7768C18.1097 23.0764 18.1873 22.7208 18.2824 18.0036L18.3631 14.0024L18.8012 13.3888C19.0421 13.0513 19.5021 12.6391 19.8233 12.473C20.3986 12.1753 20.5725 12.1703 31.472 12.1321L42.5368 12.0932L42.1611 12.6555C41.6242 13.4591 41.2227 14.5865 41.1171 15.5868C41.059 16.1371 40.9673 16.4256 40.8648 16.3802C39.1215 15.6066 38.8257 15.5365 37.5625 15.5962C36.5736 15.6431 36.127 15.7398 35.5036 16.0418C34.4841 16.5359 33.4288 17.5828 32.9238 18.6014L32.5269 19.4016L32.4539 28.1508L32.3809 36.9L25.9987 36.9723C19.8321 37.0421 19.6093 37.0544 19.3961 37.3338C19.0918 37.7329 19.1125 38.3207 19.4453 38.7277L19.7243 39.0692L26.1256 39.1116L32.5269 39.1538L32.8772 39.9513C33.3812 41.099 34.333 42.0798 35.4902 42.6439C36.3718 43.0738 36.5869 43.1184 37.7805 43.1184C39.5102 43.1184 40.5695 42.6673 41.7133 41.4438L42.4944 40.6083L43.1076 41.3571C44.3869 42.9193 46.0886 44.0069 48.0188 44.4958C48.965 44.7355 49.6373 44.7815 52.1929 44.7815H55.2392L55.1995 56.676L55.1597 68.5706L54.8059 69.2825C54.3555 70.1888 53.5812 70.9557 52.6661 71.4017L51.9473 71.7521L33.775 71.7904L15.6028 71.8289L15.2673 72.1411C14.792 72.5833 14.8148 73.3031 15.3165 73.6938C15.701 73.9935 15.7132 73.9936 33.6111 73.9936C53.0999 73.9936 52.2678 74.0267 53.9452 73.1848C54.9079 72.7018 56.1186 71.5028 56.6063 70.5493C57.4359 68.9279 57.4229 69.1512 57.4229 56.4649V44.7815L61.4749 44.78C65.4143 44.7787 65.5474 44.7692 66.2601 44.4405C68.2794 43.5093 69.1927 41.2396 68.39 39.1476L68.1138 38.4275L68.7351 38.067C70.1481 37.2469 70.9088 35.9089 70.9214 34.222C70.9286 33.2698 70.8683 33.0111 70.436 32.1413C69.9891 31.2419 69.9657 31.135 70.1893 31.0111C70.8147 30.6645 71.4644 29.9385 71.8718 29.131C72.2443 28.3927 72.3167 28.0793 72.3167 27.2059C72.3167 26.1046 72.0752 25.215 71.5948 24.5467L71.3048 24.1434L71.9393 23.692C74.3057 22.009 74.3686 18.3491 72.0631 16.4878C71.0074 15.6355 70.1878 15.4247 67.9294 15.4247C66.2769 15.4247 66.0359 15.4569 65.6926 15.7245C65.1606 16.1389 65.1606 16.8797 65.6926 17.2941C66.0339 17.5601 66.2777 17.5939 67.852 17.5939C69.4021 17.5939 69.7089 17.6351 70.2775 17.9193C71.9018 18.7313 72.0111 21.042 70.4739 22.0729C70.03 22.3705 69.7097 22.4431 68.5604 22.5068C67.3355 22.5746 67.1487 22.6216 66.9011 22.9245C66.2612 23.7075 66.7295 24.504 67.9413 24.6938C69.2994 24.9063 70.1265 25.7904 70.1265 27.0296C70.1265 27.9665 69.7756 28.6679 69.0787 29.1248C68.6107 29.4315 68.2791 29.5096 67.1344 29.5829C65.5823 29.6821 65.298 29.8394 65.2759 30.6114C65.2585 31.2156 65.846 31.7661 66.5079 31.7661C67.2251 31.7661 68.1545 32.3917 68.5063 33.1113C68.8805 33.8769 68.8887 34.4077 68.5377 35.1646C68.0193 36.2827 67.208 36.6668 65.3444 36.6767C63.9436 36.684 63.5557 36.9159 63.5557 37.7452C63.5557 38.369 63.902 38.6724 64.8046 38.8394C65.852 39.0332 66.476 39.7399 66.476 40.7322C66.476 41.3587 66.4067 41.5344 65.9762 41.9998L65.4765 42.5399L57.5437 42.5852C51.8275 42.6179 49.3865 42.5827 48.8079 42.4594C46.2445 41.9129 43.9532 39.6446 43.4112 37.1169C43.2875 36.5399 43.2532 33.4029 43.2865 25.6923L43.3322 15.0632L43.7524 14.2721C43.9836 13.8371 44.575 13.101 45.0666 12.6364L45.9605 11.7917L46.0335 8.22129C46.1046 4.74664 46.1163 4.6337 46.4716 4.00694C48.1508 1.04436 52.5924 1.79332 53.3219 5.16183C53.4168 5.60059 53.4804 7.70748 53.4804 10.4142V14.934L53.8526 15.6737C54.0574 16.0805 54.4506 16.5839 54.7264 16.7923C55.6682 17.5038 56.1932 17.5939 59.3964 17.5939C62.6889 17.5939 62.882 17.543 63.0605 16.6273C63.133 16.2559 63.0778 16.0951 62.7755 15.7958L62.4008 15.4247H59.485H56.5692L56.12 15.0503L55.6707 14.6759L55.6695 10.3142C55.669 7.91515 55.6009 5.52944 55.5183 5.01244C55.0728 2.22427 52.8025 0.154548 50.0322 0.0113799C49.3372 -0.0246292 48.6204 0.0265644 48.2238 0.140231ZM16.0999 17.6662C16.0307 21.5034 16.0093 21.7533 15.6912 22.4385C15.2661 23.3538 14.4798 24.1643 13.5446 24.6514C12.7512 25.0644 12.9127 25.0526 6.79182 25.1489L4.41976 25.1862L10.2898 19.3711C13.5184 16.1729 16.163 13.5699 16.1665 13.5865C16.17 13.6033 16.14 15.4392 16.0999 17.6662ZM39.634 18.2674C40.0005 18.5297 40.4191 19.0127 40.6309 19.4181L40.9959 20.1166L41.0421 28.9421C41.0737 35.0223 41.0378 37.998 40.9263 38.5081C40.629 39.868 39.2725 41.0109 37.9465 41.0183C36.6331 41.0257 35.4906 40.348 34.9493 39.2405C34.6494 38.6271 34.6441 38.4564 34.6474 29.3705C34.6504 20.6796 34.6668 20.09 34.921 19.5462C35.2148 18.9176 35.7806 18.3419 36.4694 17.9706C36.7852 17.8003 37.1996 17.7458 37.9548 17.775C38.8607 17.8098 39.0876 17.8763 39.634 18.2674ZM8.27332 46.8669C7.5698 47.1718 7.39297 48.0166 7.92287 48.5414C8.21228 48.8281 8.40955 48.8307 29.5839 48.8307C50.1004 48.8307 50.9625 48.8201 51.1945 48.5662C51.5413 48.1867 51.5058 47.3472 51.1288 47.0092C50.8299 46.7413 50.2428 46.7329 29.7737 46.7022C12.3195 46.6761 8.64873 46.7043 8.27332 46.8669ZM8.2609 53.1694C7.6066 53.432 7.42875 54.3458 7.92857 54.8771L8.2263 55.1937H29.5392C50.6575 55.1937 50.8548 55.1911 51.1442 54.9045C51.5377 54.5147 51.5299 53.7318 51.1288 53.3723C50.8299 53.1043 50.2445 53.0961 29.7007 53.069C17.7048 53.0533 8.44211 53.0967 8.2609 53.1694ZM8.2609 59.5332C7.58528 59.8027 7.42568 60.7369 7.96872 61.2424L8.30675 61.5568H19.123C29.2118 61.5568 29.9596 61.5397 30.2413 61.3037C30.4073 61.1646 30.5856 60.8733 30.6373 60.6565C30.7128 60.3407 30.6438 60.1757 30.2897 59.825L29.848 59.3875L19.214 59.3966C13.3653 59.4017 8.43642 59.4632 8.2609 59.5332Z" fill="#6C2382"/>
</svg>
