<svg width="70" height="70" viewBox="0 0 70 70" fill="none" xmlns="http://www.w3.org/2000/svg">
<path fill-rule="evenodd" clip-rule="evenodd" d="M4.49906 0.156961C3.06617 0.494586 1.42502 1.76805 0.769138 3.0512C0.0489384 4.4598 0.058911 4.24777 0.0570321 18.3981L0.0552979 31.6655L0.410122 32.0202C0.609286 32.2193 0.933759 32.375 1.14998 32.375C1.38007 32.375 3.18931 31.4436 5.64201 30.0625L9.74886 27.75L37.0242 27.7483C59.3157 27.7468 64.4315 27.7113 65.0221 27.5536C67.1398 26.9879 68.6682 25.4595 69.2339 23.3418C69.5147 22.2905 69.5147 5.45952 69.2339 4.4082C68.6682 2.29053 67.1398 0.762113 65.0221 0.196418C64.4388 0.0406132 61.0056 0.00303503 47.2167 0.00173425L30.134 0L29.7404 0.338492C29.2006 0.802871 29.2006 1.50963 29.7404 1.97401L30.134 2.3125L47.2167 2.31395L64.2994 2.31539L65.0221 2.65692C65.8906 3.06753 66.4217 3.60707 66.817 4.48047C67.1028 5.11178 67.1114 5.38711 67.1114 13.875C67.1114 22.3629 67.1028 22.6382 66.817 23.2695C66.4217 24.1429 65.8906 24.6825 65.0221 25.0931L64.2994 25.4346L36.7177 25.4361L9.13605 25.4375L5.80359 27.3164C3.97079 28.3498 2.44787 29.1953 2.41954 29.1953C2.39107 29.1953 2.36924 23.7807 2.37098 17.1631C2.37401 5.37078 2.38008 5.11785 2.66857 4.48047C3.06386 3.60707 3.59501 3.06753 4.4635 2.65692L5.18616 2.31539L13.2503 2.31395L21.3145 2.3125L21.6692 1.95768C22.1387 1.48838 22.1387 0.824117 21.6692 0.354824L21.3145 0L13.178 0.0144532C8.70304 0.0225469 4.79751 0.0865743 4.49906 0.156961ZM24.6914 0.354824C24.4676 0.578414 24.3365 0.874703 24.3365 1.15625C24.3365 1.4378 24.4676 1.73409 24.6914 1.95768C25.0012 2.2677 25.1756 2.3125 26.0709 2.3125C26.9663 2.3125 27.1406 2.2677 27.4505 1.95768C27.6742 1.73409 27.8053 1.4378 27.8053 1.15625C27.8053 0.874703 27.6742 0.578414 27.4505 0.354824C27.1406 0.0448047 26.9663 0 26.0709 0C25.1756 0 25.0012 0.0448047 24.6914 0.354824ZM14.3899 6.03418C14.2277 6.17322 13.6911 7.16514 13.1975 8.23828C12.7039 9.31143 12.2279 10.2603 12.1397 10.3468C12.0514 10.4334 11.0404 10.6452 9.89311 10.8173C7.70288 11.146 7.19847 11.3411 7.05437 11.9152C6.90174 12.5232 7.13776 12.886 8.77573 14.5624L10.3747 16.1988L10.0437 18.2527C9.86174 19.3824 9.67848 20.4828 9.63671 20.6983C9.57774 21.0013 9.66012 21.1896 9.99992 21.5294C10.2416 21.771 10.585 21.9688 10.763 21.9688C10.9411 21.9688 11.9868 21.4752 13.0867 20.8719L15.0865 19.7749L17.0864 20.8719C18.1863 21.4752 19.2233 21.9688 19.3908 21.9688C19.8652 21.9688 20.4709 21.3643 20.4864 20.8755C20.4937 20.6421 20.3424 19.4939 20.1501 18.324L19.8004 16.1966L21.3984 14.5612C23.0355 12.886 23.2714 12.5232 23.1187 11.9152C22.9745 11.3401 22.4614 11.1408 20.243 10.7978C19.0799 10.618 18.0713 10.4076 18.0015 10.3301C17.9316 10.2528 17.4703 9.31143 16.9763 8.23828C16.0218 6.16455 15.727 5.78125 15.0865 5.78125C14.8657 5.78125 14.5522 5.89514 14.3899 6.03418ZM34.0462 6.03418C33.884 6.17322 33.3473 7.16514 32.8538 8.23828C32.3602 9.31143 31.8841 10.2603 31.7959 10.3468C31.7076 10.4334 30.6966 10.6452 29.5494 10.8173C27.3591 11.146 26.8547 11.3411 26.7106 11.9152C26.558 12.5232 26.794 12.886 28.432 14.5624L30.0309 16.1988L29.7 18.2527C29.518 19.3824 29.3347 20.4828 29.293 20.6983C29.234 21.0013 29.3164 21.1896 29.6562 21.5294C29.8978 21.771 30.2412 21.9688 30.4193 21.9688C30.5974 21.9688 31.643 21.4752 32.7429 20.8719L34.7428 19.7749L36.7427 20.8719C37.8426 21.4752 38.8796 21.9688 39.0471 21.9688C39.5214 21.9688 40.1272 21.3643 40.1426 20.8755C40.15 20.6421 39.9987 19.4939 39.8063 18.324L39.4567 16.1966L41.0546 14.5612C42.6917 12.886 42.9276 12.5232 42.775 11.9152C42.6307 11.3401 42.1176 11.1408 39.8992 10.7978C38.7362 10.618 37.7275 10.4076 37.6577 10.3301C37.5879 10.2528 37.1266 9.31143 36.6325 8.23828C35.6781 6.16455 35.3832 5.78125 34.7428 5.78125C34.522 5.78125 34.2085 5.89514 34.0462 6.03418ZM53.7024 6.03418C53.5402 6.17322 53.0036 7.16514 52.51 8.23828C52.0164 9.31143 51.5404 10.2603 51.4522 10.3468C51.3639 10.4334 50.3529 10.6452 49.2056 10.8173C47.0154 11.146 46.511 11.3411 46.3669 11.9152C46.2142 12.5232 46.4503 12.886 48.0882 14.5624L49.6872 16.1988L49.3562 18.2527C49.1742 19.3824 48.991 20.4828 48.9492 20.6983C48.8902 21.0013 48.9726 21.1896 49.3124 21.5294C49.5541 21.771 49.8975 21.9688 50.0755 21.9688C50.2536 21.9688 51.2993 21.4752 52.3992 20.8719L54.399 19.7749L56.3989 20.8719C57.4988 21.4752 58.5358 21.9688 58.7033 21.9688C59.1777 21.9688 59.7834 21.3643 59.7989 20.8755C59.8063 20.6421 59.6549 19.4939 59.4626 18.324L59.1129 16.1966L60.7109 14.5612C62.348 12.886 62.5839 12.5232 62.4312 11.9152C62.287 11.3401 61.7739 11.1408 59.5555 10.7978C58.3924 10.618 57.3838 10.4076 57.314 10.3301C57.2441 10.2528 56.7828 9.31143 56.2888 8.23828C55.3343 6.16455 55.0395 5.78125 54.399 5.78125C54.1782 5.78125 53.8647 5.89514 53.7024 6.03418ZM15.6968 10.9482C15.9757 11.5644 16.3357 12.186 16.497 12.3298C16.7346 12.5417 18.7738 13.0043 19.483 13.0072C19.556 13.0075 19.1537 13.4845 18.5887 14.0672C18.0237 14.6498 17.5209 15.2884 17.4712 15.4861C17.4216 15.6838 17.4859 16.4504 17.6141 17.1895C17.7425 17.9287 17.8277 18.5517 17.8039 18.574C17.7799 18.5963 17.2726 18.3319 16.6764 17.9865C16.0477 17.6221 15.4012 17.3553 15.137 17.351C14.8552 17.3465 14.2496 17.5876 13.5483 17.9832C12.9249 18.3349 12.3949 18.6026 12.3704 18.578C12.3458 18.5535 12.4306 17.9287 12.559 17.1895C12.6872 16.4504 12.7515 15.6838 12.7019 15.4861C12.6522 15.2884 12.1494 14.6498 11.5844 14.0672C11.0194 13.4845 10.6171 13.0075 10.6901 13.0072C11.3993 13.0043 13.4385 12.5417 13.6761 12.3298C13.8374 12.186 14.1974 11.5644 14.4763 10.9482C14.7553 10.3321 15.0299 9.82812 15.0865 9.82812C15.1432 9.82812 15.4178 10.3321 15.6968 10.9482ZM35.353 10.9482C35.632 11.5644 35.992 12.186 36.1533 12.3298C36.3909 12.5417 38.4301 13.0043 39.1393 13.0072C39.2123 13.0075 38.8099 13.4845 38.2449 14.0672C37.68 14.6498 37.1771 15.2884 37.1274 15.4861C37.0778 15.6838 37.1422 16.4504 37.2704 17.1895C37.3987 17.9287 37.484 18.5517 37.4601 18.574C37.4361 18.5963 36.9288 18.3319 36.3326 17.9865C35.7039 17.6221 35.0574 17.3553 34.7932 17.351C34.5114 17.3465 33.9058 17.5876 33.2046 17.9832C32.5812 18.3349 32.0512 18.6026 32.0266 18.578C32.0021 18.5535 32.0869 17.9287 32.2152 17.1895C32.3434 16.4504 32.4078 15.6838 32.3582 15.4861C32.3085 15.2884 31.8056 14.6498 31.2407 14.0672C30.6757 13.4845 30.2733 13.0075 30.3463 13.0072C31.0555 13.0043 33.0947 12.5417 33.3323 12.3298C33.4936 12.186 33.8536 11.5644 34.1326 10.9482C34.4115 10.3321 34.6861 9.82812 34.7428 9.82812C34.7995 9.82812 35.0741 10.3321 35.353 10.9482ZM55.0093 10.9482C55.2882 11.5644 55.6482 12.186 55.8095 12.3298C56.0471 12.5417 58.0863 13.0043 58.7955 13.0072C58.8685 13.0075 58.4662 13.4845 57.9012 14.0672C57.3362 14.6498 56.8334 15.2884 56.7837 15.4861C56.7341 15.6838 56.7984 16.4504 56.9266 17.1895C57.055 17.9287 57.1402 18.5517 57.1164 18.574C57.0924 18.5963 56.5851 18.3319 55.9889 17.9865C55.3602 17.6221 54.7137 17.3553 54.4495 17.351C54.1677 17.3465 53.5621 17.5876 52.8608 17.9832C52.2374 18.3349 51.7074 18.6026 51.6829 18.578C51.6583 18.5535 51.7431 17.9287 51.8715 17.1895C51.9997 16.4504 52.064 15.6838 52.0144 15.4861C51.9647 15.2884 51.4619 14.6498 50.8969 14.0672C50.3319 13.4845 49.9296 13.0075 50.0026 13.0072C50.7118 13.0043 52.751 12.5417 52.9886 12.3298C53.1499 12.186 53.5099 11.5644 53.7888 10.9482C54.0678 10.3321 54.3424 9.82812 54.399 9.82812C54.4557 9.82812 54.7303 10.3321 55.0093 10.9482ZM64.5162 30.5061C64.0205 30.7291 61.878 32.7816 55.5044 39.1386C50.9056 43.7256 47.0606 47.6736 46.96 47.9121C46.8596 48.1506 46.5932 49.3018 46.3683 50.4702C46.0181 52.2903 45.9866 52.6452 46.1483 52.9474C46.5231 53.6478 46.8508 53.6705 49.3926 53.1723L51.7252 52.7152L60.2265 44.2433C65.1091 39.3777 68.85 35.5366 69.0148 35.2197C69.9045 33.5081 69.2063 31.3504 67.5066 30.5591C66.5564 30.1167 65.4259 30.0968 64.5162 30.5061ZM66.8182 32.9004C67.2629 33.4656 67.194 33.8947 66.5475 34.5847L65.9772 35.1934L65.175 34.4039L64.3729 33.6145L64.9075 33.067C65.5907 32.3673 66.3472 32.3014 66.8182 32.9004ZM57.4456 43.7093L50.594 50.5621L49.6716 50.7361C49.1644 50.8319 48.7246 50.8854 48.6943 50.8551C48.6639 50.8247 48.7259 50.384 48.832 49.8757L49.0248 48.9514L55.8662 42.109L62.7074 35.2666L63.5023 36.0616L64.2973 36.8565L57.4456 43.7093ZM4.49906 37.157C3.06617 37.4946 1.42502 38.7681 0.769138 40.0512C0.0688837 41.4208 0.0587666 41.5764 0.0587666 50.875C0.0587666 60.1736 0.0688837 60.3292 0.769138 61.6988C1.18466 62.5116 2.29365 63.6206 3.1065 64.0362C4.43474 64.7152 4.80358 64.7465 11.5159 64.7483L17.8458 64.75L18.2005 64.3952C18.4242 64.1716 18.5553 63.8753 18.5553 63.5938C18.5553 63.3122 18.4242 63.0159 18.2005 62.7923L17.8458 62.4375L11.5159 62.4361L5.18616 62.4346L4.4635 62.0931C3.59501 61.6825 3.06386 61.1429 2.66857 60.2695C2.38283 59.6382 2.37416 59.3629 2.37416 50.875C2.37416 42.3871 2.38283 42.1118 2.66857 41.4805C3.06386 40.6071 3.59501 40.0675 4.4635 39.6569L5.18616 39.3154L29.4378 39.3139L53.6895 39.3125L54.0442 38.9577C54.5137 38.4884 54.5137 37.8241 54.0442 37.3548L53.6895 37L29.3655 37.0145C15.8255 37.0225 4.80113 37.0857 4.49906 37.157ZM66.5268 39.1493C66.0976 39.4969 66.083 40.2608 66.4944 40.8395C67.1273 41.7295 67.1322 41.8409 67.0879 54.3079L67.0455 66.1959L63.6992 64.3167L60.3527 62.4375H43.2775H26.2023L25.8476 62.7923C25.3782 63.2616 25.3782 63.9259 25.8476 64.3952L26.2023 64.75H42.9769H59.7513L63.8569 67.0625C66.2642 68.4184 68.1194 69.375 68.3417 69.375C68.5526 69.375 68.8798 69.216 69.0791 69.0167L69.4374 68.6584L69.3978 55.0333L69.358 41.4082L68.9523 40.541C68.2159 38.9665 67.3595 38.4751 66.5268 39.1493ZM7.34762 43.1361C7.12389 43.3597 6.9928 43.656 6.9928 43.9375C6.9928 44.219 7.12389 44.5153 7.34762 44.7389C7.69247 45.0839 7.76199 45.0938 9.85741 45.0938C11.8187 45.0938 12.0466 45.0669 12.3932 44.7941C12.9312 44.3711 12.9312 43.5039 12.3932 43.0809C12.0466 42.8081 11.8187 42.7812 9.85741 42.7812C7.76199 42.7812 7.69247 42.7911 7.34762 43.1361ZM16.8771 43.1197C16.596 43.3615 16.4837 43.595 16.4837 43.9375C16.4837 44.28 16.596 44.5135 16.8771 44.7553L17.2707 45.0938H32.0113H46.752L47.1067 44.7389C47.3305 44.5153 47.4615 44.219 47.4615 43.9375C47.4615 43.656 47.3305 43.3597 47.1067 43.1361L46.752 42.7812H32.0113H17.2707L16.8771 43.1197ZM7.34762 47.7611C7.12389 47.9847 6.9928 48.281 6.9928 48.5625C6.9928 48.844 7.12389 49.1403 7.34762 49.3639L7.7023 49.7188H18.6738C29.5544 49.7188 29.6484 49.7163 30.026 49.4191C30.564 48.9961 30.564 48.1289 30.026 47.7059C29.6484 47.4087 29.5544 47.4062 18.6738 47.4062H7.7023L7.34762 47.7611ZM32.0353 47.6904C31.8675 47.8468 31.6867 48.1117 31.6335 48.2792C31.4981 48.7062 31.8043 49.3615 32.2301 49.5554C32.4758 49.6674 34.2695 49.7188 37.9359 49.7188H43.2833L43.638 49.3639C43.8617 49.1403 43.9928 48.844 43.9928 48.5625C43.9928 48.281 43.8617 47.9847 43.638 47.7611L43.2833 47.4062H37.8118C32.5714 47.4062 32.3274 47.4182 32.0353 47.6904ZM7.34762 52.3861C7.12389 52.6097 6.9928 52.906 6.9928 53.1875C6.9928 53.469 7.12389 53.7653 7.34762 53.9889L7.7023 54.3438H25.4928H43.2833L43.638 53.9889C44.1074 53.5196 44.1074 52.8554 43.638 52.3861L43.2833 52.0312H25.4928H7.7023L7.34762 52.3861ZM7.34762 57.0111C7.12389 57.2347 6.9928 57.531 6.9928 57.8125C6.9928 58.094 7.12389 58.3903 7.34762 58.6139L7.7023 58.9688H14.5084H21.3145L21.6692 58.6139C22.1387 58.1446 22.1387 57.4804 21.6692 57.0111L21.3145 56.6562H14.5084H7.7023L7.34762 57.0111ZM24.3942 56.9934C23.8677 57.4464 23.8739 58.1839 24.4082 58.6436L24.7863 58.9688H43.4033C62.0187 58.9688 62.0202 58.9688 62.401 58.6691C62.6949 58.4382 62.7819 58.2422 62.7819 57.8125C62.7819 57.3828 62.6949 57.1868 62.401 56.9559C62.0202 56.6562 62.0187 56.6562 43.4033 56.6562H24.7863L24.3942 56.9934ZM20.3283 62.7216C19.9084 63.1128 19.7991 63.541 19.9973 64.0192C20.23 64.5812 20.6984 64.75 22.024 64.75C23.3497 64.75 23.8181 64.5812 24.0508 64.0192C24.249 63.541 24.1397 63.1128 23.7198 62.7216C23.4604 62.48 23.207 62.4375 22.024 62.4375C20.8411 62.4375 20.5877 62.48 20.3283 62.7216Z" fill="#6C2382"/>
</svg>
